<svg version="1.1"
	 xmlns="http://www.w3.org/2000/svg" xmlns:xlink="http://www.w3.org/1999/xlink" xmlns:a="http://ns.adobe.com/AdobeSVGViewerExtensions/3.0/"
	 x="0px" y="0px"  viewBox="0 0 382 405.9" style="enable-background:new 0 0 382 405.9;"
	 xml:space="preserve">
<style type="text/css">
	.st0{fill:#2EA33A;}
</style>
<defs>
</defs>
<g>
	<polygon class="st0" points="129.9,262.5 129.9,385.6 81.6,373.4 81.6,250.3 	"/>
</g>
<path class="st0" d="M381.5,161.9L275.6,0l-170,54.1L0,163.3v189.9l19.4,5V178.6L106,89.3l86.6,132.1v179.5l19.4,5l170-54.1
	L381.5,161.9z M323.4,272l-23.5,7.7V253l23.5-7.7L323.4,272z M293.6,254.8v26.6l-23.5,7.7v-26.6L293.6,254.8z M269.7,295.9l23.5-7.7
	v26.6l-23.5,7.7V295.9z M299.9,312.5v-26.6l23.5-7.7v26.6L299.9,312.5z"/>
</svg>
