<svg width="1647" height="529" viewBox="0 0 1647 529" fill="none" xmlns="http://www.w3.org/2000/svg">
<rect width="366.183" height="524.953" transform="translate(913.817 -0.00012207)" fill="#34B841"/>
<rect width="1067.91" height="524.953" transform="translate(0 -0.00012207)" fill="#2EA33A"/>
<rect width="366.183" height="524.953" transform="translate(1280 -0.00012207)" fill="#35C343"/>
<path fill-rule="evenodd" clip-rule="evenodd" d="M40.2749 0C41.1335 0 41.8296 0.696045 41.8296 1.55481V9.79749C41.8486 9.77295 41.8676 9.7489 41.8862 9.72498C42.0019 9.57727 42.1113 9.43738 42.2402 9.26318C42.6748 8.67529 43.227 8.32153 43.6828 8.10901C44.167 7.8833 44.6914 7.74768 45.1914 7.70325C45.6914 7.65881 46.2072 7.70215 46.6626 7.87439C47.1108 8.04382 47.5644 8.36377 47.8362 8.94604C47.9861 9.2677 47.9826 9.71301 47.8269 10.1422C47.6709 10.5713 47.3818 10.9316 47.0503 11.11L41.8296 13.9183V22.2457L43.1853 21.3573C43.2544 20.7428 43.3686 20.0168 43.5547 19.2706C43.8493 18.0892 44.3855 16.6135 45.3891 15.537C46.0337 14.8455 46.7133 14.6184 47.2915 14.6233C47.8503 14.6281 48.3625 14.8451 48.7932 15.1145C49.6567 15.6548 50.4092 16.5452 50.8457 17.1956C51.0378 17.4818 51.0779 17.9194 50.9531 18.3655C50.8281 18.8115 50.5542 19.2087 50.2209 19.4272L41.8745 24.8961C41.8596 24.9059 41.8445 24.9154 41.8296 24.9243V33.6244L44.3371 31.9814C44.4797 31.2709 44.7036 30.4009 45.0464 29.4905C45.5571 28.1344 46.3645 26.6077 47.6137 25.4313C49.0442 24.0844 50.5434 24.1135 51.6477 24.4525C52.781 24.8005 53.7553 25.5457 54.321 26.1333C54.5661 26.3878 54.6487 26.8387 54.5381 27.3191C54.4275 27.7994 54.1401 28.2379 53.7824 28.4723L41.8742 36.275C41.8593 36.2848 41.8445 36.2941 41.8296 36.303V47.4897L45.3518 45.1818C45.8515 43.3206 47.0356 40.2322 49.5705 38.004C51.1845 36.5856 52.8764 36.3575 54.2236 36.5358C55.5815 36.7153 56.7441 37.3243 57.4218 37.8466C57.709 38.0679 57.8281 38.5239 57.7312 39.03C57.6345 39.536 57.3374 40.0082 56.9607 40.255L41.8745 50.1401L41.8562 50.152L41.8296 50.1683V58.8463L46.332 56.4291C46.9258 54.573 48.3481 51.4874 51.3938 49.2941C53.2556 47.9534 55.2343 47.719 56.8628 47.8954C58.4963 48.0725 59.905 48.6748 60.7314 49.1967C61.0725 49.412 61.239 49.8687 61.1599 50.3713C61.0808 50.8739 60.77 51.3335 60.3603 51.5533L41.9477 61.4385C41.9084 61.4596 41.8689 61.478 41.8296 61.494V70.22L47.9438 67.4745C48.6267 65.3942 50.3596 61.8345 54.2727 59.4215C56.5747 58.002 59.0696 57.8158 61.1672 58.0923C63.2685 58.3693 65.0957 59.1255 66.1677 59.7606C66.5429 59.9829 66.7424 60.4385 66.6792 60.9291C66.6159 61.4196 66.3015 61.8562 65.8728 62.0486L42.0544 72.7437L42.0273 72.7554L41.9819 72.7734C41.9648 72.7799 41.9475 72.7859 41.9301 72.7915C41.9126 72.7972 41.895 72.8024 41.8774 72.8071L41.8647 72.8105L41.8296 72.819V85.3101L49.3271 81.8138C50.1443 79.4546 52.2321 75.2988 56.8823 72.3903C59.5461 70.724 62.417 70.4099 64.8498 70.6389C67.2846 70.8682 69.3928 71.6508 70.6228 72.3256C71.0046 72.5349 71.2112 72.9918 71.1506 73.4928C71.0898 73.9937 70.7734 74.4453 70.3418 74.6465L42.06 87.8346C41.9834 87.8704 41.9062 87.897 41.8296 87.9147V99.3632L50.3261 96.0731C51.2297 93.8802 53.5476 90.0253 58.7129 87.3424C61.625 85.8297 64.7798 85.5366 67.4841 85.748C70.1877 85.9594 72.5366 86.682 73.9126 87.3088C74.3496 87.5078 74.6164 87.9639 74.5876 88.4626C74.5591 88.9614 74.2407 89.4034 73.7822 89.5811L42.1447 101.832L42.114 101.843L42.0883 101.852C42.0688 101.859 42.0493 101.865 42.0298 101.87L41.9909 101.88C41.9497 101.89 41.9082 101.898 41.8669 101.903L41.8296 101.907V115.713L52.164 111.994C53.1982 109.614 55.9167 105.329 62.0708 102.359C65.4763 100.715 69.1777 100.391 72.3706 100.623C75.5622 100.855 78.3359 101.648 79.9565 102.334C80.4148 102.528 80.7075 102.984 80.6938 103.481C80.6801 103.979 80.363 104.417 79.8945 104.586L42.2148 118.145C42.0876 118.191 41.9577 118.214 41.8296 118.216V163.486C41.8296 164.345 41.1335 165.041 40.2749 165.041C39.4162 165.041 38.7199 164.345 38.7199 163.486V118.205C38.6394 118.193 38.5591 118.173 38.4795 118.145L0.799776 104.586C0.33127 104.417 0.014131 103.979 0.000459121 103.481C-0.0132128 102.984 0.279512 102.528 0.737764 102.334C2.35837 101.648 5.13205 100.855 8.3237 100.623C11.5166 100.391 15.218 100.715 18.6235 102.359C24.7773 105.329 27.4961 109.614 28.5302 111.994L38.7199 115.661V101.884L38.698 101.879L38.6635 101.87C38.6255 101.859 38.5874 101.847 38.5495 101.832L6.91208 89.5812C6.45358 89.4036 6.13522 88.9615 6.10666 88.4628C6.07785 87.964 6.3447 87.5079 6.78171 87.309C8.15769 86.6821 10.5066 85.9595 13.2102 85.7482C15.9145 85.5367 19.0693 85.8298 21.9814 87.3425C27.1467 90.0254 29.4646 93.8804 30.3681 96.0732L38.7199 99.3073V87.8708C38.7016 87.864 38.6831 87.8566 38.6648 87.8486L38.634 87.8347L10.3525 74.6466C9.92087 74.4454 9.60446 73.9938 9.54367 73.4929C9.48313 72.9919 9.68967 72.535 10.0715 72.3257C11.3015 71.6509 13.4096 70.8683 15.8445 70.639C18.2773 70.41 21.1482 70.7241 23.812 72.3904C28.4621 75.299 30.55 79.4547 31.3672 81.814L38.7199 85.2427V72.7764C38.6931 72.7666 38.6662 72.7556 38.6396 72.7437L14.5974 61.948C14.1677 61.7551 13.853 61.3171 13.7905 60.8256C13.7282 60.3339 13.9297 59.8781 14.3069 59.6573C15.3862 59.0256 17.2258 58.276 19.3423 58.0067C21.4553 57.7379 23.9665 57.9341 26.2851 59.3601C30.2339 61.7886 31.9883 65.3585 32.6804 67.4431L38.7199 70.155V61.4242L20.334 51.5533C19.9243 51.3335 19.6135 50.8739 19.5344 50.3713C19.4553 49.8687 19.6218 49.412 19.9629 49.1967C20.7893 48.6748 22.198 48.0725 23.8315 47.8954C25.4599 47.719 27.4387 47.9534 29.3005 49.2941C32.3462 51.4874 33.7685 54.573 34.3623 56.4291L38.7199 58.7687V50.0746L23.7339 40.255C23.3571 40.0082 23.06 39.536 22.9633 39.03C22.8664 38.5239 22.9856 38.0679 23.2727 37.8466C23.9504 37.3243 25.113 36.7153 26.4709 36.5358C27.8181 36.3575 29.51 36.5856 31.124 38.004C33.6589 40.2322 34.843 43.3206 35.3427 45.1818L38.7199 47.3947V36.2096L26.9116 28.4723C26.5539 28.2379 26.2666 27.7994 26.156 27.3191C26.0454 26.8387 26.1279 26.3878 26.373 26.1333C26.9387 25.5457 27.9131 24.8005 29.0464 24.4525C30.1506 24.1135 31.6499 24.0844 33.0803 25.4313C34.3296 26.6077 35.1369 28.1344 35.6477 29.4905C35.9904 30.4009 36.2143 31.2709 36.3569 31.9814L38.7199 33.5298V24.8307L30.4734 19.4272C30.1401 19.2087 29.8662 18.8115 29.7412 18.3655C29.6164 17.9194 29.6565 17.4818 29.8486 17.1956C30.2851 16.5452 31.0376 15.6548 31.9011 15.1145C32.3318 14.8451 32.844 14.6281 33.4028 14.6233C33.9809 14.6184 34.6606 14.8455 35.3051 15.537C36.3088 16.6135 36.8449 18.0892 37.1396 19.2706C37.3257 20.0168 37.4399 20.7428 37.509 21.3573L38.7199 22.1508V13.8232L33.5945 10.4647C33.2844 10.2616 33.0244 9.90283 32.8891 9.49146C32.7536 9.08008 32.758 8.6615 32.9006 8.35571C33.1975 7.71936 33.7234 7.44385 34.2107 7.33386C34.7092 7.22144 35.271 7.25684 35.8034 7.37134C36.3388 7.48645 36.8906 7.69141 37.3857 7.96191C37.8132 8.19519 38.3174 8.54126 38.7199 9.03882V1.55481C38.7199 0.696045 39.4162 0 40.2749 0Z" transform="translate(1475.52 359.912)" fill="#2EA33A"/>
<path fill-rule="evenodd" clip-rule="evenodd" d="M40.2749 0C41.1335 0 41.8296 0.696045 41.8296 1.55481V9.79712C41.8386 9.78564 41.8476 9.77417 41.8564 9.76282L41.886 9.72498C42.0017 9.57727 42.1111 9.43738 42.24 9.26318C42.6745 8.67529 43.2268 8.32153 43.6826 8.10901C44.1667 7.8833 44.6911 7.74768 45.1911 7.70325C45.6911 7.65881 46.207 7.70215 46.6623 7.87439C47.1106 8.04382 47.5642 8.36377 47.8359 8.94604C47.9858 9.2677 47.9824 9.71301 47.8266 10.1422C47.6706 10.5713 47.3816 10.9316 47.05 11.11L41.8296 13.9182V22.2455L43.185 21.3573C43.2541 20.7428 43.3684 20.0168 43.5544 19.2706C43.8491 18.0892 44.3852 16.6135 45.3889 15.537C46.0334 14.8455 46.7131 14.6184 47.2912 14.6233C47.8501 14.6281 48.3623 14.8451 48.7929 15.1145C49.6565 15.6548 50.4089 16.5452 50.8454 17.1956C51.0376 17.4818 51.0776 17.9194 50.9529 18.3655C50.8279 18.8115 50.5539 19.2087 50.2207 19.4272L41.8742 24.8961C41.8593 24.9059 41.8445 24.9152 41.8296 24.9241V33.6243L44.3369 31.9814C44.4795 31.2709 44.7033 30.4009 45.0461 29.4905C45.5569 28.1344 46.3642 26.6077 47.6135 25.4313C49.0439 24.0844 50.5432 24.1135 51.6474 24.4525C52.7807 24.8005 53.7551 25.5457 54.3208 26.1333C54.5659 26.3878 54.6484 26.8387 54.5378 27.3191C54.4272 27.7994 54.1399 28.2379 53.7822 28.4723L41.874 36.275C41.8591 36.2848 41.8445 36.2939 41.8296 36.3029V47.4895L45.3515 45.1818C45.8513 43.3206 47.0354 40.2322 49.5703 38.004C51.1843 36.5856 52.8762 36.3575 54.2234 36.5358C55.5813 36.7153 56.7439 37.3243 57.4216 37.8466C57.7087 38.0679 57.8279 38.5239 57.7309 39.03C57.6342 39.536 57.3371 40.0082 56.9604 40.255L41.8742 50.1401C41.8593 50.1499 41.8445 50.1592 41.8296 50.1681V58.8463L46.332 56.4291C46.9258 54.573 48.3481 51.4874 51.3938 49.2941C53.2556 47.9534 55.2343 47.719 56.8628 47.8954C58.4963 48.0725 59.905 48.6748 60.7314 49.1967C61.0725 49.412 61.239 49.8687 61.1599 50.3713C61.0808 50.8739 60.77 51.3335 60.3603 51.5533L41.9477 61.4385C41.9248 61.4508 41.9016 61.4623 41.8786 61.4729C41.8623 61.4803 41.8459 61.4874 41.8296 61.494V70.2201L47.9441 67.4745C48.6269 65.3942 50.3598 61.8345 54.2729 59.4215C56.5749 58.002 59.0698 57.8158 61.1675 58.0923C63.2688 58.3693 65.0959 59.1255 66.1679 59.7606C66.5432 59.9829 66.7426 60.4385 66.6794 60.9291C66.6162 61.4196 66.3017 61.8562 65.873 62.0486L42.0547 72.7437C42.0312 72.7542 42.0078 72.7638 41.9841 72.7727C41.9602 72.7817 41.9363 72.7898 41.9123 72.7971C41.8847 72.8055 41.8571 72.8129 41.8296 72.819V85.3101L49.3271 81.8138C50.1443 79.4546 52.2321 75.2988 56.8823 72.3903C59.5461 70.724 62.417 70.4099 64.8498 70.6389C67.2846 70.8682 69.3928 71.6508 70.6228 72.3256C71.0046 72.5349 71.2112 72.9918 71.1506 73.4928C71.0898 73.9937 70.7734 74.4453 70.3418 74.6465L42.06 87.8346C42.0205 87.853 41.9807 87.8691 41.9409 87.8828C41.9038 87.8955 41.8667 87.9061 41.8296 87.9147V99.3632L50.3259 96.0731C51.2295 93.8802 53.5473 90.0253 58.7126 87.3424C61.6247 85.8297 64.7795 85.5366 67.4839 85.748C70.1875 85.9594 72.5363 86.682 73.9123 87.3088C74.3493 87.5078 74.6162 87.9639 74.5874 88.4626C74.5588 88.9614 74.2404 89.4034 73.782 89.5811L42.1445 101.832C42.113 101.844 42.0813 101.855 42.0495 101.864C41.9763 101.886 41.9028 101.9 41.8296 101.907V115.713L52.164 111.994C53.1982 109.614 55.9167 105.329 62.0708 102.359C65.4763 100.715 69.1777 100.391 72.3706 100.623C75.5622 100.855 78.3359 101.648 79.9565 102.334C80.4148 102.528 80.7075 102.984 80.6938 103.481C80.6801 103.979 80.363 104.417 79.8945 104.586L42.2148 118.145C42.0876 118.191 41.9577 118.214 41.8296 118.216V163.486C41.8296 164.345 41.1335 165.041 40.2749 165.041C39.4162 165.041 38.7199 164.345 38.7199 163.486V118.205C38.6394 118.193 38.5591 118.173 38.4795 118.145L0.799776 104.586C0.33127 104.417 0.014131 103.979 0.000459121 103.481C-0.0132128 102.984 0.279512 102.528 0.737764 102.334C2.35837 101.648 5.13205 100.855 8.3237 100.623C11.5166 100.391 15.218 100.715 18.6235 102.359C24.7773 105.329 27.4961 109.614 28.5302 111.994L38.7199 115.661V101.884C38.7007 101.88 38.6814 101.875 38.6621 101.869L38.6482 101.865C38.6152 101.856 38.5822 101.844 38.5495 101.832L6.91208 89.5812C6.45358 89.4036 6.13522 88.9615 6.10666 88.4628C6.07785 87.964 6.3447 87.5079 6.78171 87.309C8.15769 86.6821 10.5066 85.9595 13.2102 85.7482C15.9145 85.5367 19.0693 85.8298 21.9814 87.3425C27.1467 90.0254 29.4646 93.8804 30.3681 96.0732L38.7199 99.3073V87.871C38.6911 87.8601 38.6623 87.8481 38.6338 87.8347L10.3523 74.6466C9.92063 74.4454 9.60422 73.9938 9.54343 73.4929C9.48288 72.9919 9.68942 72.535 10.0713 72.3257C11.3012 71.6509 13.4094 70.8683 15.8442 70.639C18.2771 70.41 21.1479 70.7241 23.8117 72.3904C28.4619 75.299 30.5498 79.4547 31.3669 81.814L38.7199 85.2428V72.7765L38.6841 72.7628L38.6394 72.7437L14.5971 61.948C14.1675 61.7551 13.8528 61.3171 13.7903 60.8256C13.728 60.3339 13.9294 59.8781 14.3066 59.6573C15.386 59.0256 17.2256 58.276 19.342 58.0067C21.455 57.7379 23.9663 57.9341 26.2849 59.3601C30.2336 61.7886 31.988 65.3585 32.6801 67.4431L38.7199 70.1552V61.4243L20.3337 51.5533C19.924 51.3335 19.6133 50.8739 19.5342 50.3713C19.455 49.8687 19.6216 49.412 19.9626 49.1967C20.789 48.6748 22.1977 48.0725 23.8313 47.8954C25.4597 47.719 27.4384 47.9534 29.3003 49.2941C32.3459 51.4874 33.7683 54.573 34.362 56.4291L38.7199 58.7688V50.0747L23.7336 40.255C23.3569 40.0082 23.0598 39.536 22.9631 39.03C22.8662 38.5239 22.9853 38.0679 23.2724 37.8466C23.9502 37.3243 25.1128 36.7153 26.4707 36.5358C27.8178 36.3575 29.5097 36.5856 31.1238 38.004C33.6587 40.2322 34.8427 43.3206 35.3425 45.1818L38.7199 47.3949V36.2095L26.9118 28.4723C26.5542 28.2379 26.2668 27.7994 26.1562 27.3191C26.0456 26.8387 26.1281 26.3878 26.3733 26.1333C26.9389 25.5457 27.9133 24.8005 29.0466 24.4525C30.1508 24.1135 31.6501 24.0844 33.0805 25.4313C34.3298 26.6077 35.1372 28.1344 35.6479 29.4905C35.9907 30.4009 36.2146 31.2709 36.3571 31.9814L38.7199 33.5295V24.8307L30.4734 19.4272C30.1401 19.2087 29.8662 18.8115 29.7412 18.3655C29.6164 17.9194 29.6565 17.4818 29.8486 17.1956C30.2851 16.5452 31.0376 15.6548 31.9011 15.1145C32.3318 14.8451 32.844 14.6281 33.4028 14.6233C33.9809 14.6184 34.6606 14.8455 35.3051 15.537C36.3088 16.6135 36.8449 18.0892 37.1396 19.2706C37.3257 20.0168 37.4399 20.7428 37.509 21.3573L38.7199 22.1508V13.8234L33.5942 10.4647C33.2842 10.2616 33.0241 9.90283 32.8889 9.49146C32.7534 9.08008 32.7578 8.6615 32.9004 8.35571C33.1972 7.71936 33.7231 7.44385 34.2104 7.33386C34.5747 7.25171 34.9726 7.24854 35.3681 7.29736C35.5141 7.31531 35.6596 7.34045 35.8032 7.37134C36.3386 7.48645 36.8904 7.69141 37.3855 7.96191C37.813 8.19531 38.3171 8.54138 38.7199 9.03906V1.55481C38.7199 0.696045 39.4162 0 40.2749 0Z" transform="translate(1388.25 359.912)" fill="#2EA33A"/>
<path fill-rule="evenodd" clip-rule="evenodd" d="M40.2746 0C41.1333 0 41.8293 0.696045 41.8293 1.55481V9.79773C41.8486 9.77319 41.8674 9.74902 41.8862 9.72498C41.9382 9.65869 41.9887 9.59387 42.0405 9.52686C42.104 9.4447 42.1692 9.35913 42.2402 9.26318C42.6748 8.67529 43.227 8.32153 43.6828 8.10901C44.167 7.8833 44.6914 7.74768 45.1914 7.70325C45.6914 7.65881 46.2072 7.70215 46.6626 7.87439C47.1108 8.04382 47.5644 8.36377 47.8362 8.94604C47.9861 9.2677 47.9826 9.71301 47.8269 10.1422C47.6709 10.5713 47.3818 10.9316 47.0503 11.11L41.8293 13.9185V22.2457L43.185 21.3573C43.2541 20.7428 43.3684 20.0168 43.5544 19.2706C43.8491 18.0892 44.3852 16.6135 45.3889 15.537C46.0334 14.8455 46.7131 14.6184 47.2912 14.6233C47.8501 14.6281 48.3623 14.8451 48.7929 15.1145C49.6565 15.6548 50.4089 16.5452 50.8454 17.1956C51.0376 17.4818 51.0776 17.9194 50.9529 18.3655C50.8279 18.8115 50.5539 19.2087 50.2207 19.4272L41.8742 24.8961C41.8593 24.9059 41.8442 24.9154 41.8293 24.9243V33.6246L44.3371 31.9814C44.4797 31.2709 44.7036 30.4009 45.0464 29.4905C45.5571 28.1344 46.3645 26.6077 47.6137 25.4313C49.0442 24.0844 50.5434 24.1135 51.6477 24.4525C52.781 24.8005 53.7553 25.5457 54.321 26.1333C54.5661 26.3878 54.6487 26.8387 54.5381 27.3191C54.4275 27.7994 54.1401 28.2379 53.7824 28.4723L41.8742 36.275C41.8593 36.2848 41.8442 36.2943 41.8293 36.3032V47.4899L45.3518 45.1818C45.8515 43.3206 47.0356 40.2322 49.5705 38.004C51.1845 36.5856 52.8764 36.3575 54.2236 36.5358C55.5815 36.7153 56.7441 37.3243 57.4218 37.8466C57.709 38.0679 57.8281 38.5239 57.7312 39.03C57.6345 39.536 57.3374 40.0082 56.9607 40.255L41.8745 50.1401L41.8476 50.1572L41.8293 50.1685V58.8463L46.3318 56.4291C46.9255 54.573 48.3479 51.4874 51.3935 49.2941C53.2553 47.9534 55.2341 47.719 56.8625 47.8954C58.4961 48.0725 59.9048 48.6748 60.7312 49.1967C61.0722 49.412 61.2387 49.8687 61.1596 50.3713C61.0805 50.8739 60.7697 51.3335 60.3601 51.5533L41.9475 61.4385C41.9214 61.4525 41.895 61.4655 41.8689 61.4772L41.8293 61.494V70.2201L47.9438 67.4745C48.6267 65.3942 50.3596 61.8345 54.2727 59.4215C56.5747 58.002 59.0696 57.8158 61.1672 58.0923C63.2685 58.3693 65.0957 59.1255 66.1677 59.7606C66.5429 59.9829 66.7424 60.4385 66.6792 60.9291C66.6159 61.4196 66.3015 61.8562 65.8728 62.0486L42.0544 72.7437C41.9797 72.7772 41.9043 72.8022 41.8293 72.819V85.3101L49.3269 81.8138C50.144 79.4546 52.2319 75.2988 56.8821 72.3903C59.5459 70.724 62.4167 70.4099 64.8496 70.6389C67.2844 70.8682 69.3925 71.6508 70.6225 72.3256C71.0044 72.5349 71.2109 72.9918 71.1504 73.4928C71.0896 73.9937 70.7732 74.4453 70.3415 74.6465L42.0598 87.8346C41.9831 87.8704 41.906 87.897 41.8293 87.9147V99.3632L50.3259 96.0731C51.2295 93.8802 53.5473 90.0253 58.7126 87.3424C61.6247 85.8297 64.7795 85.5366 67.4839 85.748C70.1875 85.9594 72.5363 86.682 73.9123 87.3088C74.3493 87.5078 74.6162 87.9639 74.5874 88.4626C74.5588 88.9614 74.2404 89.4034 73.782 89.5811L42.1445 101.832C42.0403 101.872 41.9343 101.897 41.8293 101.907V115.713L52.1638 111.994C53.198 109.614 55.9165 105.329 62.0705 102.359C65.476 100.715 69.1775 100.391 72.3703 100.623C75.562 100.855 78.3357 101.648 79.9563 102.334C80.4145 102.528 80.7072 102.984 80.6936 103.481C80.6799 103.979 80.3628 104.417 79.8943 104.586L42.2146 118.145C42.0874 118.191 41.9575 118.214 41.8293 118.216V163.486C41.8293 164.345 41.1333 165.041 40.2746 165.041C39.416 165.041 38.7197 164.345 38.7197 163.486V118.205C38.6999 118.202 38.6801 118.199 38.6604 118.195L38.6164 118.185L38.5822 118.177L38.5664 118.173L38.5295 118.162L38.5149 118.157L38.5107 118.156L38.4795 118.145L0.799776 104.586C0.33127 104.417 0.014131 103.979 0.000459121 103.481C-0.0132128 102.984 0.279512 102.528 0.737764 102.334C2.35837 101.648 5.13205 100.855 8.3237 100.623C11.5166 100.391 15.218 100.715 18.6235 102.359C24.7773 105.329 27.4961 109.614 28.5302 111.994L38.7197 115.661V101.884C38.6628 101.871 38.6057 101.854 38.5493 101.832L6.91184 89.5812C6.45334 89.4036 6.13498 88.9615 6.10642 88.4628C6.07761 87.964 6.34445 87.5079 6.78146 87.309C8.15744 86.6821 10.5063 85.9595 13.2099 85.7482C15.9143 85.5367 19.0691 85.8298 21.9812 87.3425C27.1465 90.0254 29.4643 93.8804 30.3679 96.0732L38.7197 99.3073V87.8707L38.6845 87.8569C38.6677 87.85 38.6508 87.8425 38.634 87.8347L10.3525 74.6466C9.92087 74.4454 9.60446 73.9938 9.54367 73.4929C9.48313 72.9919 9.68967 72.535 10.0715 72.3257C11.3015 71.6509 13.4096 70.8683 15.8445 70.639C18.2773 70.41 21.1482 70.7241 23.812 72.3904C28.4621 75.299 30.55 79.4547 31.3672 81.814L38.7197 85.2426V72.7762C38.7038 72.7704 38.6877 72.7642 38.6718 72.7576L38.6396 72.7437L14.5974 61.948C14.1677 61.7551 13.853 61.3171 13.7905 60.8256C13.7282 60.3339 13.9297 59.8781 14.3069 59.6573C15.3862 59.0256 17.2258 58.276 19.3423 58.0067C21.4553 57.7379 23.9665 57.9341 26.2851 59.3601C30.2339 61.7886 31.9883 65.3585 32.6804 67.4431L38.7197 70.1549V61.4241L20.334 51.5533C19.9243 51.3335 19.6135 50.8739 19.5344 50.3713C19.4553 49.8687 19.6218 49.412 19.9629 49.1967C20.7893 48.6748 22.198 48.0725 23.8315 47.8954C25.4599 47.719 27.4387 47.9534 29.3005 49.2941C32.3462 51.4874 33.7685 54.573 34.3623 56.4291L38.7197 58.7686V50.0746L23.7336 40.255C23.3569 40.0082 23.0598 39.536 22.9631 39.03C22.8662 38.5239 22.9853 38.0679 23.2724 37.8466C23.9502 37.3243 25.1128 36.7153 26.4707 36.5358C27.8178 36.3575 29.5097 36.5856 31.1238 38.004C33.6587 40.2322 34.8427 43.3206 35.3425 45.1818L38.7197 47.3947V36.2095L26.9116 28.4723C26.5539 28.2379 26.2666 27.7994 26.156 27.3191C26.0454 26.8387 26.1279 26.3878 26.373 26.1333C26.9387 25.5457 27.9131 24.8005 29.0464 24.4525C30.1506 24.1135 31.6499 24.0844 33.0803 25.4313C34.3296 26.6077 35.1369 28.1344 35.6477 29.4905C35.9904 30.4009 36.2143 31.2709 36.3569 31.9814L38.7197 33.5295V24.8306L30.4734 19.4272C30.1401 19.2087 29.8662 18.8115 29.7412 18.3655C29.6164 17.9194 29.6565 17.4818 29.8486 17.1956C30.2851 16.5452 31.0376 15.6548 31.9011 15.1145C32.3318 14.8451 32.844 14.6281 33.4028 14.6233C33.9809 14.6184 34.6606 14.8455 35.3051 15.537C36.3088 16.6135 36.8449 18.0892 37.1396 19.2706C37.3257 20.0168 37.4399 20.7428 37.509 21.3573L38.7197 22.1506V13.8231L33.5945 10.4647C33.2844 10.2616 33.0244 9.90283 32.8891 9.49146C32.7536 9.08008 32.758 8.6615 32.9006 8.35571C33.1975 7.71936 33.7234 7.44385 34.2107 7.33386C34.7092 7.22144 35.271 7.25684 35.8034 7.37134C36.3388 7.48645 36.8906 7.69141 37.3857 7.96191C37.8132 8.19519 38.3171 8.54114 38.7197 9.03845V1.55481C38.7197 0.696045 39.416 0 40.2746 0Z" transform="translate(1300.99 359.912)" fill="#2EA33A"/>
<path fill-rule="evenodd" clip-rule="evenodd" d="M40.2751 0C41.1338 0 41.8298 0.696045 41.8298 1.55481V9.79749C41.8488 9.77295 41.8679 9.7489 41.8864 9.72498L42.0385 9.52991C42.1028 9.44678 42.1687 9.36035 42.2404 9.26318C42.675 8.67529 43.2273 8.32153 43.6831 8.10901C44.1672 7.8833 44.6916 7.74768 45.1916 7.70325C45.6916 7.65881 46.2075 7.70215 46.6628 7.87439C47.1111 8.04382 47.5647 8.36377 47.8364 8.94604C47.9863 9.2677 47.9829 9.71301 47.8271 10.1422C47.6711 10.5713 47.3821 10.9316 47.0505 11.11L41.8298 13.9183V22.2455L43.1853 21.3573C43.206 21.1733 43.2307 20.9795 43.2602 20.7781C43.3291 20.3064 43.4243 19.7935 43.5547 19.2706C43.8493 18.0892 44.3855 16.6135 45.3891 15.537C46.0337 14.8455 46.7133 14.6184 47.2915 14.6233C47.8503 14.6281 48.3625 14.8451 48.7932 15.1145C49.6567 15.6548 50.4092 16.5452 50.8457 17.1956C51.0378 17.4818 51.0779 17.9194 50.9531 18.3655C50.8281 18.8115 50.5542 19.2087 50.2209 19.4272L41.8745 24.8961L41.8452 24.9147L41.8298 24.9241V33.6243L44.3371 31.9814C44.4797 31.2709 44.7036 30.4009 45.0464 29.4905C45.5571 28.1344 46.3645 26.6077 47.6137 25.4313C49.0442 24.0844 50.5434 24.1135 51.6477 24.4525C52.781 24.8005 53.7553 25.5457 54.321 26.1333C54.5661 26.3878 54.6487 26.8387 54.5381 27.3191C54.4275 27.7994 54.1401 28.2379 53.7824 28.4723L41.8742 36.275L41.8518 36.2893L41.8298 36.3029V47.4895L45.3518 45.1818C45.8515 43.3206 47.0356 40.2322 49.5705 38.004C51.1845 36.5856 52.8764 36.3575 54.2236 36.5358C55.5815 36.7153 56.7441 37.3243 57.4218 37.8466C57.709 38.0679 57.8281 38.5239 57.7312 39.03C57.6345 39.536 57.3374 40.0082 56.9607 40.255L41.8745 50.1401L41.8445 50.1591L41.8298 50.1681V58.8464L46.3325 56.4291C46.9262 54.573 48.3486 51.4874 51.3943 49.2941C53.2561 47.9534 55.2348 47.719 56.8633 47.8954C58.4968 48.0725 59.9055 48.6748 60.7319 49.1967C61.073 49.412 61.2395 49.8687 61.1604 50.3713C61.0813 50.8739 60.7705 51.3335 60.3608 51.5533L41.9482 61.4385C41.9087 61.4597 41.8694 61.4781 41.8298 61.4941V70.22L47.9441 67.4745C48.6269 65.3942 50.3598 61.8345 54.2729 59.4215C56.5749 58.002 59.0698 57.8158 61.1675 58.0923C63.2688 58.3693 65.0959 59.1255 66.1679 59.7606C66.5432 59.9829 66.7426 60.4385 66.6794 60.9291C66.6162 61.4196 66.3017 61.8562 65.873 62.0486L42.0547 72.7437C42.008 72.7646 41.9612 72.7822 41.9143 72.7965C41.8862 72.8052 41.8579 72.8126 41.8298 72.819V85.3099L49.3271 81.8138C50.1443 79.4546 52.2321 75.2988 56.8823 72.3903C59.5461 70.724 62.417 70.4099 64.8498 70.6389C67.2846 70.8682 69.3928 71.6508 70.6228 72.3256C71.0046 72.5349 71.2112 72.9918 71.1506 73.4928C71.0898 73.9937 70.7734 74.4453 70.3418 74.6465L42.06 87.8346C42.03 87.8486 42 87.8612 41.9699 87.8724C41.9233 87.8898 41.8764 87.9038 41.8298 87.9146V99.3632L50.3261 96.0731C51.2297 93.8802 53.5476 90.0253 58.7129 87.3424C61.625 85.8297 64.7798 85.5366 67.4841 85.748C70.1877 85.9594 72.5366 86.682 73.9126 87.3088C74.3496 87.5078 74.6164 87.9639 74.5876 88.4626C74.5591 88.9614 74.2407 89.4034 73.7822 89.5811L42.1447 101.832C42.0857 101.855 42.0261 101.873 41.9665 101.886C41.9209 101.896 41.8752 101.903 41.8298 101.907V115.713L52.164 111.994C53.1982 109.614 55.9167 105.329 62.0708 102.359C65.4763 100.715 69.1777 100.391 72.3706 100.623C75.5622 100.855 78.3359 101.648 79.9565 102.334C80.4148 102.528 80.7075 102.984 80.6938 103.481C80.6801 103.979 80.363 104.417 79.8945 104.586L42.2148 118.145C42.0876 118.191 41.9577 118.214 41.8298 118.216V163.486C41.8298 164.345 41.1338 165.041 40.2751 165.041C39.4165 165.041 38.7202 164.345 38.7202 163.486V118.205L38.7109 118.203C38.6838 118.199 38.6567 118.194 38.6296 118.188C38.5793 118.177 38.5293 118.163 38.4795 118.145L0.799776 104.586C0.33127 104.417 0.014131 103.979 0.000459121 103.481C-0.0132128 102.984 0.279512 102.528 0.737764 102.334C2.35837 101.648 5.13205 100.855 8.3237 100.623C11.5166 100.391 15.218 100.715 18.6235 102.359C24.7773 105.329 27.4961 109.614 28.5302 111.994L38.7202 115.661V101.884C38.6967 101.879 38.6736 101.873 38.6504 101.866C38.6167 101.856 38.583 101.845 38.5495 101.832L6.91208 89.5812C6.45358 89.4036 6.13522 88.9615 6.10666 88.4628C6.07785 87.964 6.3447 87.5079 6.78171 87.309C8.15769 86.6821 10.5066 85.9595 13.2102 85.7482C15.9145 85.5367 19.0693 85.8298 21.9814 87.3425C27.1467 90.0254 29.4646 93.8804 30.3681 96.0732L38.7202 99.3074V87.871C38.6914 87.8601 38.6626 87.8481 38.634 87.8347L10.3525 74.6466C9.92087 74.4454 9.60446 73.9938 9.54367 73.4929C9.48313 72.9919 9.68967 72.535 10.0715 72.3257C11.3015 71.6509 13.4096 70.8683 15.8445 70.639C18.2773 70.41 21.1482 70.7241 23.812 72.3904C28.4621 75.299 30.55 79.4547 31.3672 81.814L38.7202 85.2428V72.7765C38.6933 72.7666 38.6665 72.7557 38.6396 72.7437L14.5974 61.948C14.1677 61.7551 13.853 61.3171 13.7905 60.8256C13.7282 60.3339 13.9297 59.8781 14.3069 59.6573C15.3862 59.0256 17.2258 58.276 19.3423 58.0067C21.4553 57.7379 23.9665 57.9341 26.2851 59.3601C30.2339 61.7886 31.9883 65.3585 32.6804 67.4431L38.7202 70.1552V61.4244L20.3337 51.5533C19.924 51.3335 19.6133 50.8739 19.5342 50.3713C19.455 49.8687 19.6216 49.412 19.9626 49.1967C20.789 48.6748 22.1977 48.0725 23.8313 47.8954C25.4597 47.719 27.4384 47.9534 29.3003 49.2941C32.3459 51.4874 33.7683 54.573 34.362 56.4291L38.7202 58.7689V50.0748L23.7336 40.255C23.3569 40.0082 23.0598 39.536 22.9631 39.03C22.8662 38.5239 22.9853 38.0679 23.2724 37.8466C23.9502 37.3243 25.1128 36.7153 26.4707 36.5358C27.8178 36.3575 29.5097 36.5856 31.1238 38.004C33.6587 40.2322 34.8427 43.3206 35.3425 45.1818L38.7202 47.395V36.2096L26.9118 28.4723C26.5542 28.2379 26.2668 27.7994 26.1562 27.3191C26.0456 26.8387 26.1281 26.3878 26.3733 26.1333C26.9389 25.5457 27.9133 24.8005 29.0466 24.4525C30.1508 24.1135 31.6501 24.0844 33.0805 25.4313C34.3298 26.6077 35.1372 28.1344 35.6479 29.4905C35.9907 30.4009 36.2146 31.2709 36.3571 31.9814L38.7202 33.5298V24.8307L30.4736 19.4272C30.1404 19.2087 29.8664 18.8115 29.7414 18.3655C29.6167 17.9194 29.6567 17.4818 29.8488 17.1956C30.2854 16.5452 31.0378 15.6548 31.9013 15.1145C32.332 14.8451 32.8442 14.6281 33.403 14.6233C33.9812 14.6184 34.6609 14.8455 35.3054 15.537C36.3091 16.6135 36.8452 18.0892 37.1399 19.2706C37.2856 19.8556 37.3874 20.4281 37.4577 20.9443C37.4773 21.0865 37.4944 21.2245 37.5092 21.3573L38.7202 22.1508V13.8234L33.5945 10.4647C33.2844 10.2616 33.0244 9.90283 32.8891 9.49146C32.7536 9.08008 32.758 8.6615 32.9006 8.35571C33.1975 7.71936 33.7234 7.44385 34.2107 7.33386C34.7092 7.22144 35.271 7.25684 35.8034 7.37134C36.3388 7.48645 36.8906 7.69141 37.3857 7.96191C37.8132 8.19531 38.3174 8.54138 38.7202 9.03906V1.55481C38.7202 0.696045 39.4165 0 40.2751 0Z" transform="translate(1213.72 359.912)" fill="#2EA33A"/>
<path fill-rule="evenodd" clip-rule="evenodd" d="M40.2751 0C41.1338 0 41.8298 0.696045 41.8298 1.55481V9.79712C41.8388 9.78564 41.8479 9.77417 41.8567 9.76282L41.8862 9.72498C42.0019 9.57727 42.1113 9.43738 42.2402 9.26318C42.6748 8.67529 43.227 8.32153 43.6828 8.10901C44.167 7.8833 44.6914 7.74768 45.1914 7.70325C45.6914 7.65881 46.2072 7.70215 46.6626 7.87439C47.1108 8.04382 47.5644 8.36377 47.8362 8.94604C47.9861 9.2677 47.9826 9.71301 47.8269 10.1422C47.6709 10.5713 47.3818 10.9316 47.0503 11.11L41.8298 13.9182V22.2457L43.1855 21.3573C43.2219 21.0331 43.271 20.6779 43.3366 20.3051C43.3952 19.9712 43.467 19.6232 43.5549 19.2706C43.8496 18.0892 44.3857 16.6135 45.3894 15.537C46.0339 14.8455 46.7136 14.6184 47.2917 14.6233C47.8506 14.6281 48.3628 14.8451 48.7934 15.1145C49.657 15.6548 50.4094 16.5452 50.8459 17.1956C51.0381 17.4818 51.0781 17.9194 50.9533 18.3655C50.8283 18.8115 50.5544 19.2087 50.2212 19.4272L41.8747 24.8961L41.8564 24.908L41.8298 24.9243V33.6243L44.3371 31.9814C44.4797 31.2709 44.7036 30.4009 45.0464 29.4905C45.5571 28.1344 46.3645 26.6077 47.6137 25.4313C49.0442 24.0844 50.5434 24.1135 51.6477 24.4525C52.781 24.8005 53.7553 25.5457 54.321 26.1333C54.5661 26.3878 54.6487 26.8387 54.5381 27.3191C54.4275 27.7994 54.1401 28.2379 53.7824 28.4723L41.8742 36.275L41.8503 36.2903L41.8298 36.3029V47.4895L45.3518 45.1818C45.8515 43.3206 47.0356 40.2322 49.5705 38.004C51.1845 36.5856 52.8764 36.3575 54.2236 36.5358C55.5815 36.7153 56.7441 37.3243 57.4218 37.8466C57.709 38.0679 57.8281 38.5239 57.7312 39.03C57.6345 39.536 57.3374 40.0082 56.9607 40.255L41.8745 50.1401C41.8596 50.1499 41.8447 50.1592 41.8298 50.1681V58.8463L46.3322 56.4291C46.926 54.573 48.3484 51.4874 51.394 49.2941C53.2558 47.9534 55.2346 47.719 56.863 47.8954C58.4966 48.0725 59.9052 48.6748 60.7317 49.1967C61.0727 49.412 61.2392 49.8687 61.1601 50.3713C61.081 50.8739 60.7702 51.3335 60.3606 51.5533L41.948 61.4385C41.9087 61.4596 41.8691 61.478 41.8298 61.494V70.2198L47.9438 67.4745C48.6267 65.3942 50.3596 61.8345 54.2727 59.4215C56.5747 58.002 59.0696 57.8158 61.1672 58.0923C63.2685 58.3693 65.0957 59.1255 66.1677 59.7606C66.5429 59.9829 66.7424 60.4385 66.6792 60.9291C66.6159 61.4196 66.3015 61.8562 65.8728 62.0486L42.0544 72.7437C42.0237 72.7576 41.9926 72.7699 41.9616 72.7809C41.9177 72.7964 41.8738 72.8091 41.8298 72.8188V85.3099L49.3271 81.8138C50.1443 79.4546 52.2321 75.2988 56.8823 72.3903C59.5461 70.724 62.417 70.4099 64.8498 70.6389C67.2846 70.8682 69.3928 71.6508 70.6228 72.3256C71.0046 72.5349 71.2112 72.9918 71.1506 73.4928C71.0898 73.9937 70.7734 74.4453 70.3418 74.6465L42.06 87.8346C41.9834 87.8704 41.9065 87.8969 41.8298 87.9146V99.3632L50.3261 96.0731C51.2297 93.8802 53.5476 90.0253 58.7129 87.3424C61.625 85.8297 64.7798 85.5366 67.4841 85.748C70.1877 85.9594 72.5366 86.682 73.9126 87.3088C74.3496 87.5078 74.6164 87.9639 74.5876 88.4626C74.5591 88.9614 74.2407 89.4034 73.7822 89.5811L42.1447 101.832C42.0942 101.851 42.0434 101.867 41.9924 101.88C41.9382 101.893 41.884 101.902 41.8298 101.907V115.713L52.1643 111.994C53.1985 109.614 55.917 105.329 62.071 102.359C65.4765 100.715 69.1779 100.391 72.3708 100.623C75.5625 100.855 78.3362 101.648 79.9568 102.334C80.415 102.528 80.7077 102.984 80.6941 103.481C80.6804 103.979 80.3633 104.417 79.8947 104.586L42.2151 118.145C42.0879 118.191 41.958 118.214 41.8298 118.216V163.486C41.8298 164.345 41.1338 165.041 40.2751 165.041C39.4165 165.041 38.7202 164.345 38.7202 163.486V118.205C38.697 118.201 38.674 118.197 38.6508 118.193C38.6123 118.185 38.5739 118.175 38.5356 118.164L38.5215 118.159L38.4795 118.145L0.799776 104.586C0.33127 104.417 0.014131 103.979 0.000459121 103.481C-0.0132128 102.984 0.279512 102.528 0.737764 102.334C2.35837 101.648 5.13205 100.855 8.3237 100.623C11.5166 100.391 15.218 100.715 18.6235 102.359C24.7773 105.329 27.4961 109.614 28.5302 111.994L38.7202 115.661V101.884C38.6631 101.871 38.6062 101.854 38.5495 101.832L6.91208 89.5812C6.45358 89.4036 6.13522 88.9615 6.10666 88.4628C6.07785 87.964 6.3447 87.5079 6.78171 87.309C8.15769 86.6821 10.5066 85.9595 13.2102 85.7482C15.9145 85.5367 19.0693 85.8298 21.9814 87.3425C27.1467 90.0254 29.4646 93.8804 30.3681 96.0732L38.7202 99.3074V87.8708C38.7065 87.8657 38.6926 87.8602 38.6789 87.8544C38.664 87.8481 38.6491 87.8417 38.6342 87.8347L10.3528 74.6466C9.92111 74.4454 9.60471 73.9938 9.54392 73.4929C9.48337 72.9919 9.68991 72.535 10.0717 72.3257C11.3017 71.6509 13.4099 70.8683 15.8447 70.639C18.2776 70.41 21.1484 70.7241 23.8122 72.3904C28.4624 75.299 30.5503 79.4547 31.3674 81.814L38.7202 85.2427V72.7765C38.6933 72.7666 38.6665 72.7557 38.6396 72.7437L14.5974 61.948C14.1677 61.7551 13.853 61.3171 13.7905 60.8256C13.7282 60.3339 13.9297 59.8781 14.3069 59.6573C15.3862 59.0256 17.2258 58.276 19.3423 58.0067C21.4553 57.7379 23.9665 57.9341 26.2851 59.3601C30.2339 61.7886 31.9883 65.3585 32.6804 67.4431L38.7202 70.1552V61.4243L20.334 51.5533C19.9243 51.3335 19.6135 50.8739 19.5344 50.3713C19.4553 49.8687 19.6218 49.412 19.9629 49.1967C20.7893 48.6748 22.198 48.0725 23.8315 47.8954C25.4599 47.719 27.4387 47.9534 29.3005 49.2941C32.3462 51.4874 33.7685 54.573 34.3623 56.4291L38.7202 58.7688V50.0748L23.7336 40.255C23.3569 40.0082 23.0598 39.536 22.9631 39.03C22.8662 38.5239 22.9853 38.0679 23.2724 37.8466C23.9502 37.3243 25.1128 36.7153 26.4707 36.5358C27.8178 36.3575 29.5097 36.5856 31.1238 38.004C33.6587 40.2322 34.8427 43.3206 35.3425 45.1818L38.7202 47.395V36.2096L26.9118 28.4723C26.5542 28.2379 26.2668 27.7994 26.1562 27.3191C26.0456 26.8387 26.1281 26.3878 26.3733 26.1333C26.9389 25.5457 27.9133 24.8005 29.0466 24.4525C30.1508 24.1135 31.6501 24.0844 33.0805 25.4313C34.3298 26.6077 35.1372 28.1344 35.6479 29.4905C35.9907 30.4009 36.2146 31.2709 36.3571 31.9814L38.7202 33.5298V24.8308L30.4734 19.4272C30.1401 19.2087 29.8662 18.8115 29.7412 18.3655C29.6164 17.9194 29.6565 17.4818 29.8486 17.1956C30.2851 16.5452 31.0376 15.6548 31.9011 15.1145C32.3318 14.8451 32.844 14.6281 33.4028 14.6233C33.9809 14.6184 34.6606 14.8455 35.3051 15.537C36.3088 16.6135 36.8449 18.0892 37.1396 19.2706C37.3257 20.0168 37.4399 20.7428 37.509 21.3573L38.7202 22.151V13.8234L33.5945 10.4647C33.2844 10.2616 33.0244 9.90283 32.8891 9.49146C32.7536 9.08008 32.758 8.6615 32.9006 8.35571C33.1975 7.71936 33.7234 7.44385 34.2107 7.33386C34.7092 7.22144 35.271 7.25684 35.8034 7.37134C36.3388 7.48645 36.8906 7.69141 37.3857 7.96191C37.8132 8.19531 38.3174 8.54138 38.7202 9.03906V1.55481C38.7202 0.696045 39.4165 0 40.2751 0Z" transform="translate(1126.46 359.912)" fill="#2EA33A"/>
</svg>
