
<svg version="1.1"
	 xmlns="http://www.w3.org/2000/svg" xmlns:xlink="http://www.w3.org/1999/xlink" xmlns:a="http://ns.adobe.com/AdobeSVGViewerExtensions/3.0/"
	 x="0px" y="0px" viewBox="0 0 266.2 45.1" style="enable-background:new 0 0 266.2 45.1;"
	 xml:space="preserve">
<style type="text/css">
	.st0{fill:#282A43;}
	.st1{fill:#2DA349;}
</style>
<defs>
</defs>
<g>
	<path class="st0" d="M94.7,26.8c0.2,0,0.3,0.1,0.3,0.3v0.7c0,0.2-0.1,0.3-0.3,0.3h-7c-0.2,0-0.3-0.1-0.3-0.3v-0.7
		c0-0.2,0.1-0.3,0.3-0.3h0.2c0.8,0,1.2-0.5,1.2-1.1c0-0.3-0.1-0.7-0.4-1.1l-3.3-4.7l-2,2.1v2.6c0,1.2,0.4,2.1,1.5,2.2h0.1
		c0.2,0,0.3,0.1,0.3,0.3v0.7c0,0.2-0.1,0.3-0.3,0.3h-7c-0.2,0-0.3-0.1-0.3-0.3v-0.7c0-0.2,0.1-0.3,0.3-0.3h0.2
		c1.2-0.1,1.5-1,1.5-2.2V14.6c0-1.2-0.4-2.1-1.5-2.2H78c-0.2,0-0.3-0.1-0.3-0.3v-0.7c0-0.2,0.1-0.3,0.3-0.3h7c0.2,0,0.3,0.1,0.3,0.3
		v0.7c0,0.2-0.1,0.3-0.3,0.3h-0.2c-1.2,0.1-1.5,1-1.5,2.2v4.5l4.5-5l0.7-0.8c0.1-0.2,0.2-0.4,0.2-0.5c0-0.2-0.1-0.4-0.5-0.4h-0.5
		c-0.2,0-0.3-0.1-0.3-0.3v-0.7c0-0.2,0.1-0.3,0.3-0.3h5.8c0.2,0,0.3,0.1,0.3,0.3V12c0,0.2-0.1,0.3-0.3,0.3h-0.3
		c-0.9,0-1.4,0.3-2.5,1.5l-3.4,3.6l4.8,7.1c0.8,1.2,1.1,2.1,2.3,2.2H94.7z"/>
	<path class="st0" d="M110.5,26.8c0.2,0,0.3,0.1,0.3,0.3v0.7c0,0.2-0.1,0.3-0.3,0.3h-6.2c-0.2,0-0.3-0.1-0.3-0.3v-0.7
		c0-0.2,0.1-0.3,0.4-0.3c0.9,0,1.2-0.9,1.2-2.2v-3.4c0-1.2,0.1-2.7-1.7-2.7c-1.1,0-2.4,1-2.8,2v4.2c0,1.2,0.6,2.2,1.7,2.2h0
		c0.2,0,0.3,0.1,0.3,0.3v0.7c0,0.2-0.1,0.3-0.3,0.3h-6.7c-0.2,0-0.3-0.1-0.3-0.3v-0.7c0-0.2,0.1-0.3,0.3-0.3h0.1
		c1.1,0,1.7-0.9,1.7-2.2v-2.9c0-1.2-0.1-2.5-1.4-2.6c-0.2,0-0.3-0.1-0.3-0.3v-0.8c0-0.2,0.1-0.3,0.3-0.3c2.2-0.3,3.9-1.2,4.5-1.7
		c0,0,0.1-0.1,0.1-0.1l0.1,0c0,0,0,0,0,0l-0.4,3c0.6-1,1.9-2.6,4-2.6c3.3,0,3.9,2.2,3.9,4.4v3.8C108.8,25.9,109.3,26.8,110.5,26.8
		L110.5,26.8z"/>
	<path class="st0" d="M116.6,16.5c2.3,0,4.5,1.4,5.5,3.6c0.4,0.8,0.5,1.7,0.5,2.5c0,2.3-1.3,4.4-3.4,5.4c-0.8,0.3-1.5,0.5-2.3,0.5
		c-2.3,0-4.5-1.4-5.5-3.6c-0.4-0.8-0.5-1.7-0.5-2.5c0-2.3,1.3-4.4,3.4-5.4C115.1,16.6,115.9,16.5,116.6,16.5z M113.6,20.9
		c0,0.8,0.3,1.8,0.6,2.7c0.7,1.6,1.9,3.1,3.4,3.1c0.3,0,0.6-0.1,0.9-0.2c1-0.4,1.4-1.4,1.4-2.4c0-0.8-0.3-1.8-0.6-2.7
		c-0.7-1.6-1.9-3.1-3.4-3.1c-0.3,0-0.6,0.1-0.9,0.2C114,18.9,113.6,19.8,113.6,20.9z"/>
	<path class="st0" d="M143.3,16.7c0.2,0,0.3,0.1,0.3,0.3v0.7c0,0.2-0.1,0.3-0.3,0.3H143c-0.5,0-0.8,0.3-1.3,1.4l-3.6,8.4
		c-0.1,0.2-0.2,0.3-0.4,0.3h-1.2c-0.2,0-0.3-0.1-0.4-0.3l-3-7l-3,7c-0.1,0.2-0.2,0.3-0.4,0.3h-1.2c-0.2,0-0.3-0.1-0.4-0.3l-3.6-8.4
		c-0.5-1.1-0.7-1.4-1.3-1.4h-0.1c-0.2,0-0.3-0.1-0.3-0.3v-0.7c0-0.2,0.1-0.3,0.3-0.3h5.3c0.2,0,0.3,0.1,0.3,0.3v0.7
		c0,0.2-0.1,0.3-0.3,0.3h0c-0.6,0-0.8,0.3-0.8,0.7c0,0.4,0.2,0.9,0.5,1.5l1.8,4.3l2-4.9c0.2-0.5,0.3-0.9,0.3-1.1
		c0-0.3-0.2-0.5-0.5-0.5H131c-0.2,0-0.3-0.1-0.3-0.3v-0.7c0-0.2,0.1-0.3,0.3-0.3h5.5c0.2,0,0.3,0.1,0.3,0.3v0.7
		c0,0.2-0.1,0.3-0.3,0.3h-0.3c-0.6,0-0.8,0.3-0.8,0.7c0,0.4,0.2,0.9,0.5,1.5l1.8,4.3l2-4.9c0.2-0.5,0.3-0.9,0.3-1.1
		c0-0.3-0.2-0.5-0.5-0.5h-0.5c-0.2,0-0.3-0.1-0.3-0.3v-0.7c0-0.2,0.1-0.3,0.3-0.3H143.3z"/>
	<path class="st0" d="M148.6,24.6c0,1.2,0.6,2.2,1.7,2.2c0.2,0,0.3,0.1,0.3,0.3v0.7c0,0.2-0.1,0.3-0.3,0.3h-6.6
		c-0.2,0-0.3-0.1-0.3-0.3v-0.7c0-0.2,0.1-0.3,0.3-0.3c1.1,0,1.7-0.9,1.7-2.2v-8.6c0-1.2-0.1-2.5-1.4-2.6c-0.2,0-0.3-0.1-0.3-0.3
		v-0.8c0-0.2,0.1-0.2,0.3-0.3c2.4-0.8,3.7-1.7,4.3-2.1c0,0,0.1-0.1,0.1-0.1l0.1,0c0,0,0,0,0.1,0V24.6z"/>
	<path class="st0" d="M154.5,24.1c0.5,1.3,1.7,2.5,3.4,2.5c1,0,2.1-0.5,2.9-1.7c0.1-0.1,0.1-0.1,0.2-0.1c0.1,0,0.2,0,0.9,0.4
		c0.1,0,0.1,0.1,0.1,0.2c0,0.1-0.1,0.3-0.1,0.4c-0.9,1.6-2.3,2.7-4.6,2.7c-3.8,0-6.1-2.8-6.1-6.1c0-4.2,2.7-5.9,5.4-5.9
		c3,0,4.7,2.7,4.7,4.4c0,0.1,0,0.2-0.2,0.3L154.5,24.1z M157.9,20.8c0-1.5-0.8-2.5-1.8-2.5c-1.3,0-2.1,1.1-2.1,2.6
		c0,0.5,0,1.2,0.2,1.7L157.9,20.8z"/>
	<path class="st0" d="M174.3,24c0,1.1,0.2,2.1,1.3,2.2c0.2,0,0.3,0.1,0.3,0.3v0.8c0,0.2-0.1,0.3-0.3,0.3c-2.3,0-3.2,0.4-4.2,0.9
		c0,0-0.1,0-0.2,0h-0.1c0,0,0,0,0-0.1l0.3-2c-0.2,0.6-1.1,2.1-3.5,2.1c-2.1,0-5.1-1.6-5.1-6c0-4.2,2.6-6,5.3-6c1.2,0,2.2,0.4,3,1.1
		v-1.5c0-1.2-0.1-2.5-1.4-2.6c-0.2,0-0.3-0.1-0.3-0.3v-0.8c0-0.2,0.1-0.2,0.3-0.3c2.4-0.8,3.7-1.7,4.3-2.1c0,0,0.1-0.1,0.1-0.1
		l0.1,0c0,0,0,0,0,0V24z M171.2,20.8c-0.2-1.4-1-2.6-2.6-2.6c-2.2,0-2.8,1.6-2.8,3.5c0,2.9,1.3,4.8,3.2,4.8c1.7,0,2.2-1.9,2.2-1.9
		V20.8z"/>
	<path class="st0" d="M187.9,16c0.2,0,0.3,0.1,0.3,0.3c0.1,1.5-0.6,2.3-1.6,2.4c0.4,0.6,0.6,1.3,0.6,2.1c0,2.4-1.9,4.4-5,4.4
		c-1.1,0-2-0.2-2.8-0.6c-0.2,0.1-0.3,0.3-0.3,0.6c0,0.7,0.5,1,3.3,1.2c2.7,0.1,5.3,0.6,5.3,3.4c0,2.5-3,3.4-5.7,3.4
		c-2.8,0-5.2-0.9-5.2-2.8c0-1,0.6-1.7,1.4-2.2c-0.8-0.5-1.2-1.2-1.2-2.1c0-1,0.6-1.8,1.4-2.1c-0.9-0.8-1.4-1.9-1.4-3.1
		c0-2.4,1.9-4.4,5-4.4c1.3,0,2.3,0.3,3.2,0.9l0.1,0c0.1,0,0.1,0,0.2,0c0.2,0,0.4-0.1,0.4-0.6l0-0.1c0-0.2,0.1-0.3,0.3-0.3l1.6-0.4
		L187.9,16z M185.5,30.4c0-1-1.4-1.2-3.6-1.3c-0.8,0-1.5-0.1-2.1-0.3c-0.4,0.3-0.7,0.7-0.7,1.2c0,0.7,0.6,1.5,2.9,1.5
		C184.2,31.5,185.5,31.1,185.5,30.4z M179.8,20.8c0,1.3,0.5,3,2.2,3c1.8,0,2.1-1.7,2.1-3c0-1.3-0.3-3-2.1-3
		C180.3,17.8,179.8,19.5,179.8,20.8z"/>
	<path class="st0" d="M192,24.1c0.5,1.3,1.7,2.5,3.4,2.5c1,0,2.1-0.5,2.9-1.7c0.1-0.1,0.1-0.1,0.2-0.1c0.1,0,0.2,0,0.9,0.4
		c0.1,0,0.1,0.1,0.1,0.2c0,0.1-0.1,0.3-0.1,0.4c-0.9,1.6-2.3,2.7-4.6,2.7c-3.8,0-6.1-2.8-6.1-6.1c0-4.2,2.7-5.9,5.4-5.9
		c3,0,4.7,2.7,4.7,4.4c0,0.1,0,0.2-0.2,0.3L192,24.1z M195.4,20.8c0-1.5-0.8-2.5-1.8-2.5c-1.3,0-2.1,1.1-2.1,2.6
		c0,0.5,0,1.2,0.2,1.7L195.4,20.8z"/>
	<path class="st0" d="M213.9,11c3,0,5.7,1.6,5.7,4.1c0,1.2-0.7,2.4-2.3,3.2c2.8,0.8,3.8,2.6,3.8,4.8c0,2.6-2.4,5.1-6.1,5.1h-8.4
		c-0.2,0-0.3-0.1-0.3-0.3v-0.7c0-0.2,0.1-0.3,0.3-0.3h0c1.3,0,1.7-0.9,1.7-2.2V14.6c0-1.2-0.4-2.2-1.7-2.2h0c-0.2,0-0.3-0.1-0.3-0.3
		v-0.7c0-0.2,0.1-0.3,0.3-0.3H213.9z M213.2,17.9c2.2,0,2.9-1.2,2.9-2.8c0-1.7-1.1-2.8-2.9-2.8h-1.5v5.5H213.2z M214,26.8
		c2.3,0,3.7-1.6,3.7-3.7c0-2.5-1.4-3.6-4.4-3.6h-1.3v5.1c0,1.2,0.4,2.1,1.5,2.2H214z"/>
	<path class="st0" d="M234,24c0,1.1,0.2,2.1,1.3,2.2c0.2,0,0.3,0.1,0.3,0.3v0.8c0,0.2-0.1,0.3-0.3,0.3c-2.2,0-3.2,0.4-4.2,0.9
		c0,0-0.1,0-0.2,0h-0.1c0,0,0,0,0-0.1l0.3-2c-0.2,0.6-1.1,2.1-3.5,2.1c-2.1,0-5.1-1.6-5.1-6c0-4.2,2.6-6,5.3-6
		c1.5,0,2.8,0.5,3.7,1.3c1.3-0.5,1.8-0.9,2.3-1.3c0,0,0.1-0.1,0.1-0.1l0.1,0c0,0,0,0,0,0V24z M230.8,20.4c-0.2-0.9-0.7-2.4-2.6-2.4
		c-2.2,0-2.8,1.8-2.8,3.7c0,2.9,1.3,4.8,3.2,4.8c1.7,0,2.2-1.5,2.2-1.5V20.4z"/>
	<path class="st0" d="M251.3,26.8c0.2,0,0.3,0.1,0.3,0.3v0.7c0,0.2-0.1,0.3-0.3,0.3h-6.2c-0.2,0-0.3-0.1-0.3-0.3v-0.7
		c0-0.2,0.1-0.3,0.4-0.3c0.9,0,1.2-0.9,1.2-2.2v-3.4c0-1.2,0.1-2.7-1.7-2.7c-1.1,0-2.4,1-2.8,2v4.2c0,1.2,0.6,2.2,1.7,2.2h0
		c0.2,0,0.3,0.1,0.3,0.3v0.7c0,0.2-0.1,0.3-0.3,0.3h-6.7c-0.2,0-0.3-0.1-0.3-0.3v-0.7c0-0.2,0.1-0.3,0.3-0.3h0.1
		c1.1,0,1.7-0.9,1.7-2.2v-2.9c0-1.2-0.1-2.5-1.4-2.6c-0.2,0-0.3-0.1-0.3-0.3v-0.8c0-0.2,0.1-0.3,0.3-0.3c2.2-0.3,3.9-1.2,4.5-1.7
		c0,0,0.1-0.1,0.1-0.1l0.1,0c0,0,0,0,0,0l-0.4,3c0.6-1,1.9-2.6,4-2.6c3.3,0,3.9,2.2,3.9,4.4v3.8C249.5,25.9,250.1,26.8,251.3,26.8
		L251.3,26.8z"/>
	<path class="st0" d="M265.9,26.8c0.2,0,0.3,0.1,0.3,0.3v0.7c0,0.2-0.1,0.3-0.3,0.3h-5.6c-0.2,0-0.3-0.1-0.3-0.3v-0.7l0,0
		c0-0.2,0.1-0.3,0.3-0.3h0.4c0.3,0,0.6-0.1,0.6-0.4c0-0.1,0-0.2-0.2-0.3l-3-3.3l-0.5,0.4v1.4c0,1.8,0.1,2.2,1.2,2.2
		c0.2,0,0.3,0.1,0.3,0.3v0.7c0,0.2-0.1,0.3-0.3,0.3h-6.1c-0.2,0-0.3-0.1-0.3-0.3v-0.7c0-0.2,0.1-0.3,0.3-0.3c1.1,0,1.7-0.9,1.7-2.2
		v-8.6c0-1.2-0.1-2.5-1.4-2.6c-0.2,0-0.3-0.1-0.3-0.3v-0.8c0-0.2,0.1-0.2,0.3-0.3c2.4-0.8,3.7-1.7,4.3-2.1c0,0,0.1-0.1,0.1-0.1h0.1
		c0,0,0,0,0,0v11.4l2.8-2.5c0.1-0.1,0.2-0.2,0.2-0.3c0-0.2-0.1-0.3-0.4-0.3h-0.7c-0.2,0-0.3-0.1-0.3-0.3v-0.7c0-0.2,0.1-0.3,0.3-0.3
		h5.1c0.2,0,0.3,0.1,0.3,0.3v0.7c0,0.2-0.1,0.3-0.3,0.3h-0.3c-0.9,0-1.4,0.4-2.6,1.5l-1.8,1.6l4.9,4.9
		C265.2,26.6,265.5,26.8,265.9,26.8L265.9,26.8z"/>
</g>
<g>
	<path class="st0" d="M78.6,38.1v2.5h2.8v-2.5h0.7v5.7h-0.7v-2.6h-2.8v2.6h-0.7v-5.7H78.6z"/>
	<path class="st0" d="M85.9,38.1h0.9l1.9,5.7h-0.7l-0.5-1.4h-2.2l-0.5,1.4h-0.7L85.9,38.1z M85.4,41.7h1.9l-0.9-2.8L85.4,41.7z"/>
	<path class="st0" d="M90.3,38.1l1.4,4.7l1.4-4.1h0.5l1.4,4.1l1.6-4.7h0.8l-2,5.7h-0.7l-1.2-3.6L92,43.7h-0.7l-1.8-5.7H90.3z"/>
	<path class="st0" d="M99.7,38.1v2.6l2.5-2.6h1l-2.5,2.5l2.6,3.1h-0.9l-2.2-2.6l-0.6,0.6v2H99v-5.7H99.7z"/>
	<path class="st0" d="M105.2,38.1h3.5v0.6h-2.8v1.9h2.6v0.6h-2.6v1.9h2.8v0.6h-3.5V38.1z"/>
	<path class="st0" d="M110.5,38.2c0.1-0.1,0.2-0.1,0.4-0.1s0.3,0.1,0.4,0.2c0.1,0.1,0.2,0.3,0.2,0.5c0,0.2-0.1,0.4-0.2,0.6
		c-0.1,0.2-0.3,0.4-0.6,0.5l-0.5-0.3c0.4-0.2,0.6-0.4,0.7-0.7c-0.1,0-0.3-0.1-0.3-0.1c-0.1-0.1-0.1-0.2-0.1-0.3
		C110.4,38.4,110.4,38.3,110.5,38.2z"/>
	<path class="st0" d="M116.6,39.4c-0.1-0.6-0.5-0.8-1.2-0.8c-0.4,0-0.7,0.1-0.9,0.2c-0.2,0.2-0.3,0.4-0.3,0.6c0,0.2,0.1,0.4,0.2,0.5
		c0.1,0.1,0.3,0.2,0.6,0.3l1.2,0.4c0.4,0.1,0.7,0.3,1,0.6c0.2,0.2,0.4,0.6,0.4,1c0,0.4-0.2,0.8-0.6,1.1c-0.4,0.3-0.9,0.4-1.5,0.4
		c-0.6,0-1.1-0.2-1.5-0.5c-0.4-0.3-0.6-0.8-0.6-1.3h0.7c0,0.4,0.1,0.7,0.4,0.9c0.3,0.2,0.6,0.3,1,0.3c0.4,0,0.7-0.1,1-0.3
		c0.2-0.2,0.4-0.4,0.4-0.6c0-0.2-0.1-0.4-0.2-0.6c-0.1-0.1-0.4-0.3-0.7-0.4l-1-0.4c-0.5-0.2-0.8-0.3-1.1-0.6
		c-0.2-0.2-0.4-0.5-0.4-0.9c0-0.4,0.2-0.8,0.5-1c0.3-0.3,0.8-0.4,1.4-0.4c0.6,0,1.1,0.1,1.4,0.4s0.5,0.6,0.6,1.1H116.6z"/>
	<path class="st0" d="M122.6,38.1h2.1c0.6,0,1.1,0.1,1.4,0.4c0.3,0.3,0.5,0.6,0.5,1.1c0,0.3-0.1,0.6-0.3,0.8
		c-0.2,0.2-0.4,0.4-0.8,0.5c0.4,0.1,0.6,0.2,0.8,0.5c0.2,0.2,0.3,0.5,0.3,0.8c0,0.7-0.3,1.2-1,1.4c-0.3,0.1-0.6,0.1-0.9,0.1h-2.1
		V38.1z M123.3,40.6h1.4c0.3,0,0.6-0.1,0.8-0.3c0.2-0.2,0.3-0.4,0.3-0.7c0-0.3-0.1-0.5-0.3-0.7c-0.2-0.2-0.5-0.3-0.8-0.3h-1.4V40.6z
		 M124.7,43.1c0.4,0,0.7-0.1,0.9-0.3c0.2-0.2,0.3-0.4,0.3-0.7c0-0.3-0.1-0.5-0.3-0.7c-0.2-0.2-0.5-0.3-0.9-0.3h-1.4v1.9H124.7z"/>
	<path class="st0" d="M130.2,38.1h0.9l1.9,5.7h-0.7l-0.5-1.4h-2.2l-0.5,1.4h-0.7L130.2,38.1z M129.6,41.7h1.9l-0.9-2.8L129.6,41.7z"
		/>
	<path class="st0" d="M134.6,38.1l1.5,2.6l1.6-2.6h0.8l-2,3.3v2.3h-0.7v-2.3l-2-3.3H134.6z"/>
	<path class="st0" d="M145.4,38.1c0.9,0,1.5,0.3,2,0.8c0.5,0.5,0.8,1.2,0.8,2.1c0,0.9-0.3,1.5-0.8,2.1c-0.5,0.5-1.2,0.8-2,0.8h-1.7
		v-5.7H145.4z M144.4,43.1h1c0.6,0,1.1-0.2,1.5-0.6c0.4-0.4,0.6-0.9,0.6-1.6s-0.2-1.2-0.6-1.6c-0.4-0.4-0.9-0.6-1.5-0.6h-1V43.1z"/>
	<path class="st0" d="M150.4,38.1h0.7v5.7h-0.7V38.1z"/>
	<path class="st0" d="M157.1,42.7c-0.3,0.7-0.7,1.1-1.5,1.1c-0.7,0-1.3-0.3-1.8-0.8c-0.5-0.5-0.7-1.2-0.7-2.1c0-0.9,0.3-1.6,0.8-2.1
		c0.5-0.5,1.1-0.8,1.9-0.8c0.4,0,0.8,0.1,1.2,0.3c0.3,0.2,0.6,0.5,0.9,0.9l-0.7,0.2c-0.4-0.5-0.8-0.7-1.4-0.7c-0.5,0-1,0.2-1.3,0.6
		c-0.4,0.4-0.5,1-0.5,1.7s0.2,1.2,0.5,1.6c0.3,0.4,0.7,0.6,1.3,0.6c0.4,0,0.8-0.1,1-0.4c0.3-0.3,0.4-0.7,0.4-1.3v0l-1.4-0.1v-0.5
		h2.1v2.8h-0.6L157.1,42.7z"/>
	<path class="st0" d="M160.1,38.1h0.7v5.7h-0.7V38.1z"/>
	<path class="st0" d="M162.5,38.1h4.4v0.6H165v5h-0.7v-5h-1.8V38.1z"/>
	<path class="st0" d="M169.5,38.1h0.9l1.9,5.7h-0.7l-0.5-1.4h-2.2l-0.5,1.4h-0.7L169.5,38.1z M168.9,41.7h1.9l-0.9-2.8L168.9,41.7z"
		/>
	<path class="st0" d="M174.8,43.1h2.5v0.6h-3.2v-5.7h0.7V43.1z"/>
	<path class="st0" d="M183.1,38.1h0.9l1.9,5.7h-0.7l-0.5-1.4h-2.2l-0.5,1.4h-0.7L183.1,38.1z M182.6,41.7h1.9l-0.9-2.8L182.6,41.7z"
		/>
	<path class="st0" d="M191.6,39.7c0,0.5-0.1,0.8-0.4,1.1c-0.2,0.3-0.6,0.5-1.1,0.6l1.6,2.3h-0.9l-1.5-2.3h-1v2.3h-0.7v-5.7h2
		c0.6,0,1.1,0.2,1.5,0.5C191.5,38.8,191.6,39.2,191.6,39.7z M189.6,40.9c0.4,0,0.7-0.1,1-0.3c0.2-0.2,0.3-0.5,0.3-0.8
		c0-0.3-0.1-0.6-0.3-0.8c-0.2-0.2-0.5-0.3-0.9-0.3h-1.3v2.2H189.6z"/>
	<path class="st0" d="M195.9,38c0.6,0,1.1,0.2,1.5,0.5c0.4,0.3,0.6,0.7,0.8,1.2l-0.8,0.2c-0.1-0.4-0.3-0.6-0.6-0.8
		c-0.3-0.2-0.6-0.3-0.9-0.3c-0.5,0-0.9,0.2-1.2,0.6c-0.3,0.4-0.5,0.9-0.5,1.6c0,0.7,0.1,1.3,0.4,1.7c0.3,0.4,0.7,0.6,1.2,0.6
		c0.4,0,0.8-0.1,1.1-0.4s0.4-0.5,0.4-0.9h0.8c0,0.6-0.2,1.1-0.6,1.4c-0.4,0.3-1,0.5-1.7,0.5c-0.7,0-1.3-0.3-1.7-0.8
		c-0.4-0.5-0.7-1.3-0.7-2.2s0.2-1.6,0.7-2.1C194.6,38.2,195.2,38,195.9,38z"/>
	<path class="st0" d="M200.9,38.1v2.5h2.8v-2.5h0.7v5.7h-0.7v-2.6h-2.8v2.6h-0.7v-5.7H200.9z"/>
	<path class="st0" d="M206.9,38.1h0.7v5.7h-0.7V38.1z"/>
	<path class="st0" d="M210.1,38.1l1.6,4.8l1.6-4.8h0.7l-2,5.7h-0.7l-2-5.7H210.1z"/>
	<path class="st0" d="M215.9,38.1h3.5v0.6h-2.8v1.9h2.6v0.6h-2.6v1.9h2.8v0.6h-3.5V38.1z"/>
	<path class="st0" d="M224.7,39.4c-0.1-0.6-0.5-0.8-1.2-0.8c-0.4,0-0.7,0.1-0.9,0.2c-0.2,0.2-0.3,0.4-0.3,0.6c0,0.2,0.1,0.4,0.2,0.5
		c0.1,0.1,0.3,0.2,0.6,0.3l1.2,0.4c0.4,0.1,0.7,0.3,1,0.6c0.2,0.2,0.4,0.6,0.4,1c0,0.4-0.2,0.8-0.6,1.1c-0.4,0.3-0.9,0.4-1.5,0.4
		c-0.6,0-1.1-0.2-1.5-0.5c-0.4-0.3-0.6-0.8-0.6-1.3h0.7c0,0.4,0.1,0.7,0.4,0.9c0.3,0.2,0.6,0.3,1,0.3c0.4,0,0.7-0.1,1-0.3
		c0.2-0.2,0.4-0.4,0.4-0.6c0-0.2-0.1-0.4-0.2-0.6c-0.1-0.1-0.4-0.3-0.7-0.4l-1-0.4c-0.5-0.2-0.8-0.3-1.1-0.6
		c-0.2-0.2-0.4-0.5-0.4-0.9c0-0.4,0.2-0.8,0.5-1c0.3-0.3,0.8-0.4,1.4-0.4c0.6,0,1.1,0.1,1.4,0.4s0.5,0.6,0.6,1.1H224.7z"/>
	<path class="st0" d="M229.8,38.1h4.4v0.6h-1.8v5h-0.7v-5h-1.8V38.1z"/>
	<path class="st0" d="M239.8,39.7c0,0.5-0.1,0.8-0.4,1.1c-0.2,0.3-0.6,0.5-1.1,0.6l1.6,2.3H239l-1.5-2.3h-1v2.3h-0.7v-5.7h2
		c0.6,0,1.1,0.2,1.5,0.5C239.6,38.8,239.8,39.2,239.8,39.7z M237.8,40.9c0.4,0,0.7-0.1,1-0.3c0.2-0.2,0.3-0.5,0.3-0.8
		c0-0.3-0.1-0.6-0.3-0.8c-0.2-0.2-0.5-0.3-0.9-0.3h-1.3v2.2H237.8z"/>
	<path class="st0" d="M242.7,38.1v3.6c0,0.5,0.1,0.9,0.4,1.1c0.3,0.2,0.6,0.4,1,0.4c0.4,0,0.8-0.1,1-0.4c0.3-0.2,0.4-0.6,0.4-1.1
		v-3.6h0.7v3.6c0,0.7-0.2,1.2-0.6,1.6c-0.4,0.4-0.9,0.5-1.6,0.5c-0.7,0-1.2-0.2-1.6-0.5c-0.4-0.4-0.6-0.9-0.6-1.6v-3.6H242.7z"/>
	<path class="st0" d="M251.7,39.4c-0.1-0.6-0.5-0.8-1.2-0.8c-0.4,0-0.7,0.1-0.9,0.2c-0.2,0.2-0.3,0.4-0.3,0.6c0,0.2,0.1,0.4,0.2,0.5
		c0.1,0.1,0.3,0.2,0.6,0.3l1.2,0.4c0.4,0.1,0.7,0.3,1,0.6c0.2,0.2,0.4,0.6,0.4,1c0,0.4-0.2,0.8-0.6,1.1c-0.4,0.3-0.9,0.4-1.5,0.4
		c-0.6,0-1.1-0.2-1.5-0.5c-0.4-0.3-0.6-0.8-0.6-1.3h0.7c0,0.4,0.1,0.7,0.4,0.9c0.3,0.2,0.6,0.3,1,0.3c0.4,0,0.7-0.1,1-0.3
		c0.2-0.2,0.4-0.4,0.4-0.6c0-0.2-0.1-0.4-0.2-0.6c-0.1-0.1-0.4-0.3-0.7-0.4l-1-0.4c-0.5-0.2-0.8-0.3-1.1-0.6
		c-0.2-0.2-0.4-0.5-0.4-0.9c0-0.4,0.2-0.8,0.5-1c0.3-0.3,0.8-0.4,1.4-0.4c0.6,0,1.1,0.1,1.4,0.4s0.5,0.6,0.6,1.1H251.7z"/>
	<path class="st0" d="M254,38.1h4.4v0.6h-1.8v5h-0.7v-5H254V38.1z"/>
</g>
<g>
	<polygon class="st1" points="59.8,6.2 64,17.3 61.8,17.3 61.8,17.9 65,17.9 60.2,5.6 49.5,5.6 49.5,6.3 	"/>

		<rect x="27" y="5.7" transform="matrix(1 -6.739689e-03 6.739689e-03 1 -3.989333e-02 0.2426)" class="st1" width="17.9" height="0.6"/>
	<path class="st1" d="M63.9,29.1H46.7h-0.4h-1l-1.2,2.8v12.1h-0.8V31.9l-1.3-2.8h-8.8v14.9h-0.8V29.1h-2.4h-3.4H24l-0.4,1l0,0
		l-0.7,1.8v0v12.1h-0.5H22V31.8l-1.6-2.7H4.8v14.9H3.3v1.2h62v-1.2h-1.4V29.1z M54.4,33h2.1v3.2h-2.1V33z M54.4,36.8h2.1V40h-2.1
		V36.8z M51.6,33h2.1v3.2h-2.1V33z M51.6,36.8h2.1V40h-2.1V36.8z"/>
	<polygon class="st1" points="62.2,23.1 61.8,23.6 67.3,27.5 1.8,27.5 6.9,23.6 6.5,23.1 0,28.1 69.3,28.1 	"/>
	<path class="st1" d="M7.6,22.5h25.7h27.1v-5.1H52v-0.8v-5.8h0l-4.3-5.9L47.6,4c0.2-0.1,0.3-0.2,0.3-0.4c0-0.2-0.2-0.3-0.4-0.4
		l-0.3-1.8L47,3.2c-0.3,0.1-0.4,0.2-0.4,0.4c0,0.2,0.1,0.3,0.3,0.4l-0.1,0.8l-4.1,5.9v5.8v0.8h-6.4l-0.3-0.1l-2.5-2.8L20.4,0L7.6,14
		v0l-3.2,3.5l3.2,0V22.5z M49.8,19.5h-2.1v-3.2h2.1V19.5z M47.7,12.5h2.1v3.2h-2.1V12.5z M45,12.5H47v3.2H45V12.5z M45,16.3H47v3.2
		H45V16.3z M20.9,11.6h2.4v3.8h-2.4V11.6z M20.9,16.2h2.4V20h-2.4V16.2z M17.6,11.6H20v3.8h-2.4V11.6z M17.6,16.2H20V20h-2.4V16.2z"
		/>
</g>
</svg>
