<svg version="1.1"
	 xmlns="http://www.w3.org/2000/svg" xmlns:xlink="http://www.w3.org/1999/xlink" xmlns:a="http://ns.adobe.com/AdobeSVGViewerExtensions/3.0/"
	 x="0px" y="0px" viewBox="0 0 188.5 97.8" style="enable-background:new 0 0 188.5 97.8;"
	 xml:space="preserve">
<style type="text/css">
	.st0{fill:#FFFFFF;}
	.st1{fill:#35C343;}
</style>
<defs>
</defs>
<g>
	<g>
		<path class="st0" d="M17.1,80.8c0.2,0,0.3,0.1,0.3,0.3v0.7c0,0.2-0.1,0.3-0.3,0.3h-7c-0.2,0-0.3-0.1-0.3-0.3v-0.7
			c0-0.2,0.1-0.3,0.3-0.3h0.2c0.8,0,1.2-0.5,1.2-1.1c0-0.3-0.1-0.7-0.4-1.1l-3.3-4.7l-2,2.1v2.6c0,1.2,0.4,2.1,1.5,2.2h0.1
			c0.2,0,0.3,0.1,0.3,0.3v0.7c0,0.2-0.1,0.3-0.3,0.3h-7C0.1,82.1,0,82,0,81.8v-0.7c0-0.2,0.1-0.3,0.3-0.3h0.2c1.2-0.1,1.5-1,1.5-2.2
			V68.5c0-1.2-0.4-2.1-1.5-2.2H0.3C0.1,66.4,0,66.2,0,66v-0.7C0,65.1,0.1,65,0.3,65h7c0.2,0,0.3,0.1,0.3,0.3V66
			c0,0.2-0.1,0.3-0.3,0.3H7.2c-1.2,0.1-1.5,1-1.5,2.2v4.5l4.5-5l0.7-0.8c0.1-0.2,0.2-0.4,0.2-0.5c0-0.2-0.1-0.4-0.5-0.4h-0.5
			c-0.2,0-0.3-0.1-0.3-0.3v-0.7c0-0.2,0.1-0.3,0.3-0.3H16c0.2,0,0.3,0.1,0.3,0.3V66c0,0.2-0.1,0.3-0.3,0.3h-0.3
			c-0.9,0-1.4,0.3-2.5,1.5l-3.4,3.6l4.8,7.1c0.8,1.2,1.1,2.1,2.3,2.2H17.1z"/>
		<path class="st0" d="M32.9,80.8c0.2,0,0.3,0.1,0.3,0.3v0.7c0,0.2-0.1,0.3-0.3,0.3h-6.2c-0.2,0-0.3-0.1-0.3-0.3v-0.7
			c0-0.2,0.1-0.3,0.4-0.3c0.9,0,1.2-0.9,1.2-2.2v-3.4c0-1.2,0.1-2.7-1.7-2.7c-1.1,0-2.4,1-2.8,2v4.2c0,1.2,0.6,2.2,1.7,2.2h0
			c0.2,0,0.3,0.1,0.3,0.3v0.7c0,0.2-0.1,0.3-0.3,0.3h-6.7c-0.2,0-0.3-0.1-0.3-0.3v-0.7c0-0.2,0.1-0.3,0.3-0.3h0.1
			c1.1,0,1.7-0.9,1.7-2.2v-2.9c0-1.2-0.1-2.5-1.4-2.6c-0.2,0-0.3-0.1-0.3-0.3V72c0-0.2,0.1-0.3,0.3-0.3c2.2-0.3,3.9-1.2,4.5-1.7
			c0,0,0.1-0.1,0.1-0.1l0.1,0c0,0,0,0,0,0l-0.4,3c0.6-1,1.9-2.6,4-2.6c3.3,0,3.9,2.2,3.9,4.4v3.8C31.1,79.8,31.6,80.8,32.9,80.8
			L32.9,80.8z"/>
		<path class="st0" d="M39,70.4c2.3,0,4.5,1.4,5.5,3.6c0.4,0.8,0.5,1.7,0.5,2.5c0,2.3-1.3,4.4-3.4,5.4c-0.8,0.3-1.5,0.5-2.3,0.5
			c-2.3,0-4.5-1.4-5.5-3.6c-0.4-0.8-0.5-1.7-0.5-2.5c0-2.3,1.3-4.4,3.4-5.4C37.4,70.6,38.2,70.4,39,70.4z M36,74.9
			c0,0.8,0.3,1.8,0.6,2.7c0.7,1.6,1.9,3.1,3.4,3.1c0.3,0,0.6-0.1,0.9-0.2c1-0.4,1.4-1.4,1.4-2.4c0-0.8-0.3-1.8-0.6-2.7
			c-0.7-1.6-1.9-3.1-3.4-3.1c-0.3,0-0.6,0.1-0.9,0.2C36.4,72.9,36,73.8,36,74.9z"/>
		<path class="st0" d="M65.6,70.7c0.2,0,0.3,0.1,0.3,0.3v0.7c0,0.2-0.1,0.3-0.3,0.3h-0.3c-0.5,0-0.8,0.3-1.3,1.4l-3.6,8.4
			c-0.1,0.2-0.2,0.3-0.4,0.3h-1.2c-0.2,0-0.3-0.1-0.4-0.3l-3-7l-3,7c-0.1,0.2-0.2,0.3-0.4,0.3h-1.2c-0.2,0-0.3-0.1-0.4-0.3l-3.6-8.4
			c-0.5-1.1-0.7-1.4-1.3-1.4h-0.1c-0.2,0-0.3-0.1-0.3-0.3V71c0-0.2,0.1-0.3,0.3-0.3h5.3c0.2,0,0.3,0.1,0.3,0.3v0.7
			c0,0.2-0.1,0.3-0.3,0.3h0c-0.6,0-0.8,0.3-0.8,0.7c0,0.4,0.2,0.9,0.5,1.5l1.8,4.3l2-4.9c0.2-0.5,0.3-0.9,0.3-1.1
			c0-0.3-0.2-0.5-0.5-0.5h-0.5c-0.2,0-0.3-0.1-0.3-0.3V71c0-0.2,0.1-0.3,0.3-0.3h5.5c0.2,0,0.3,0.1,0.3,0.3v0.7
			c0,0.2-0.1,0.3-0.3,0.3h-0.3c-0.6,0-0.8,0.3-0.8,0.7c0,0.4,0.2,0.9,0.5,1.5l1.8,4.3l2-4.9c0.2-0.5,0.3-0.9,0.3-1.1
			c0-0.3-0.2-0.5-0.5-0.5h-0.5c-0.2,0-0.3-0.1-0.3-0.3V71c0-0.2,0.1-0.3,0.3-0.3H65.6z"/>
		<path class="st0" d="M71,78.6c0,1.2,0.6,2.2,1.7,2.2c0.2,0,0.3,0.1,0.3,0.3v0.7c0,0.2-0.1,0.3-0.3,0.3h-6.6
			c-0.2,0-0.3-0.1-0.3-0.3v-0.7c0-0.2,0.1-0.3,0.3-0.3c1.1,0,1.7-0.9,1.7-2.2V70c0-1.2-0.1-2.5-1.4-2.6c-0.2,0-0.3-0.1-0.3-0.3v-0.8
			c0-0.2,0.1-0.2,0.3-0.3c2.4-0.8,3.7-1.7,4.3-2.1c0,0,0.1-0.1,0.1-0.1l0.1,0c0,0,0,0,0.1,0V78.6z"/>
		<path class="st0" d="M76.8,78.1c0.5,1.3,1.7,2.5,3.4,2.5c1,0,2.1-0.5,2.9-1.7c0.1-0.1,0.1-0.1,0.2-0.1c0.1,0,0.2,0,0.9,0.4
			c0.1,0,0.1,0.1,0.1,0.2c0,0.1-0.1,0.3-0.1,0.4c-0.9,1.6-2.3,2.7-4.6,2.7c-3.8,0-6.1-2.8-6.1-6.1c0-4.2,2.7-5.9,5.4-5.9
			c3,0,4.7,2.7,4.7,4.4c0,0.1,0,0.2-0.2,0.3L76.8,78.1z M80.2,74.8c0-1.5-0.8-2.5-1.8-2.5c-1.3,0-2.1,1.1-2.1,2.6
			c0,0.5,0,1.2,0.2,1.7L80.2,74.8z"/>
		<path class="st0" d="M96.7,77.9c0,1.1,0.2,2.1,1.3,2.2c0.2,0,0.3,0.1,0.3,0.3v0.8c0,0.2-0.1,0.3-0.3,0.3c-2.3,0-3.2,0.4-4.2,0.9
			c0,0-0.1,0-0.2,0h-0.1c0,0,0,0,0-0.1l0.3-2c-0.2,0.6-1.1,2.1-3.5,2.1c-2.1,0-5.1-1.6-5.1-6c0-4.2,2.6-6,5.3-6c1.2,0,2.2,0.4,3,1.1
			V70c0-1.2-0.1-2.5-1.4-2.6c-0.2,0-0.3-0.1-0.3-0.3v-0.8c0-0.2,0.1-0.2,0.3-0.3c2.4-0.8,3.7-1.7,4.3-2.1c0,0,0.1-0.1,0.1-0.1l0.1,0
			c0,0,0,0,0,0V77.9z M93.5,74.7c-0.2-1.4-1-2.6-2.6-2.6c-2.2,0-2.8,1.6-2.8,3.5c0,2.9,1.3,4.8,3.2,4.8c1.7,0,2.2-1.9,2.2-1.9V74.7z
			"/>
		<path class="st0" d="M110.2,70c0.2,0,0.3,0.1,0.3,0.3c0.1,1.5-0.6,2.3-1.6,2.4c0.4,0.6,0.6,1.3,0.6,2.1c0,2.4-1.9,4.4-5,4.4
			c-1.1,0-2-0.2-2.8-0.6c-0.2,0.1-0.3,0.3-0.3,0.6c0,0.7,0.5,1,3.3,1.2c2.7,0.1,5.3,0.6,5.3,3.4c0,2.5-3,3.4-5.7,3.4
			c-2.8,0-5.2-0.9-5.2-2.8c0-1,0.6-1.7,1.4-2.2c-0.8-0.5-1.2-1.2-1.2-2.1c0-1,0.6-1.8,1.4-2.1c-0.9-0.8-1.4-1.9-1.4-3.1
			c0-2.4,1.9-4.4,5-4.4c1.3,0,2.3,0.3,3.2,0.9l0.1,0c0.1,0,0.1,0,0.2,0c0.2,0,0.4-0.1,0.4-0.6l0-0.1c0-0.2,0.1-0.3,0.3-0.3l1.6-0.4
			L110.2,70z M107.8,84.3c0-1-1.4-1.2-3.6-1.3c-0.8,0-1.5-0.1-2.1-0.3c-0.4,0.3-0.7,0.7-0.7,1.2c0,0.7,0.6,1.5,2.9,1.5
			C106.6,85.5,107.8,85,107.8,84.3z M102.2,74.8c0,1.3,0.5,3,2.2,3c1.8,0,2.1-1.7,2.1-3c0-1.3-0.3-3-2.1-3
			C102.7,71.8,102.2,73.5,102.2,74.8z"/>
		<path class="st0" d="M114.3,78.1c0.5,1.3,1.7,2.5,3.4,2.5c1,0,2.1-0.5,2.9-1.7c0.1-0.1,0.1-0.1,0.2-0.1c0.1,0,0.2,0,0.9,0.4
			c0.1,0,0.1,0.1,0.1,0.2c0,0.1-0.1,0.3-0.1,0.4c-0.9,1.6-2.3,2.7-4.6,2.7c-3.8,0-6.1-2.8-6.1-6.1c0-4.2,2.7-5.9,5.4-5.9
			c3,0,4.7,2.7,4.7,4.4c0,0.1,0,0.2-0.2,0.3L114.3,78.1z M117.8,74.8c0-1.5-0.8-2.5-1.8-2.5c-1.3,0-2.1,1.1-2.1,2.6
			c0,0.5,0,1.2,0.2,1.7L117.8,74.8z"/>
		<path class="st0" d="M136.2,65c3,0,5.7,1.6,5.7,4.1c0,1.2-0.7,2.4-2.3,3.2c2.8,0.8,3.8,2.6,3.8,4.8c0,2.6-2.4,5.1-6.1,5.1h-8.4
			c-0.2,0-0.3-0.1-0.3-0.3v-0.7c0-0.2,0.1-0.3,0.3-0.3h0c1.3,0,1.7-0.9,1.7-2.2V68.5c0-1.2-0.4-2.2-1.7-2.2h0
			c-0.2,0-0.3-0.1-0.3-0.3v-0.7c0-0.2,0.1-0.3,0.3-0.3H136.2z M135.5,71.9c2.2,0,2.9-1.2,2.9-2.8c0-1.7-1.1-2.8-2.9-2.8h-1.5v5.5
			H135.5z M136.3,80.8c2.3,0,3.7-1.6,3.7-3.7c0-2.5-1.4-3.6-4.4-3.6h-1.3v5.1c0,1.2,0.4,2.1,1.5,2.2H136.3z"/>
		<path class="st0" d="M156.3,77.9c0,1.1,0.2,2.1,1.3,2.2c0.2,0,0.3,0.1,0.3,0.3v0.8c0,0.2-0.1,0.3-0.3,0.3c-2.2,0-3.2,0.4-4.2,0.9
			c0,0-0.1,0-0.2,0h-0.1c0,0,0,0,0-0.1l0.3-2c-0.2,0.6-1.1,2.1-3.5,2.1c-2.1,0-5.1-1.6-5.1-6c0-4.2,2.6-6,5.3-6
			c1.5,0,2.8,0.5,3.7,1.3c1.3-0.5,1.8-0.9,2.3-1.3c0,0,0.1-0.1,0.1-0.1l0.1,0c0,0,0,0,0,0V77.9z M153.1,74.3
			c-0.2-0.9-0.7-2.4-2.6-2.4c-2.2,0-2.8,1.8-2.8,3.7c0,2.9,1.3,4.8,3.2,4.8c1.7,0,2.2-1.5,2.2-1.5V74.3z"/>
		<path class="st0" d="M173.6,80.8c0.2,0,0.3,0.1,0.3,0.3v0.7c0,0.2-0.1,0.3-0.3,0.3h-6.2c-0.2,0-0.3-0.1-0.3-0.3v-0.7
			c0-0.2,0.1-0.3,0.4-0.3c0.9,0,1.2-0.9,1.2-2.2v-3.4c0-1.2,0.1-2.7-1.7-2.7c-1.1,0-2.4,1-2.8,2v4.2c0,1.2,0.6,2.2,1.7,2.2h0
			c0.2,0,0.3,0.1,0.3,0.3v0.7c0,0.2-0.1,0.3-0.3,0.3h-6.7c-0.2,0-0.3-0.1-0.3-0.3v-0.7c0-0.2,0.1-0.3,0.3-0.3h0.1
			c1.1,0,1.7-0.9,1.7-2.2v-2.9c0-1.2-0.1-2.5-1.4-2.6c-0.2,0-0.3-0.1-0.3-0.3V72c0-0.2,0.1-0.3,0.3-0.3c2.2-0.3,3.9-1.2,4.5-1.7
			c0,0,0.1-0.1,0.1-0.1l0.1,0c0,0,0,0,0,0l-0.4,3c0.6-1,1.9-2.6,4-2.6c3.3,0,3.9,2.2,3.9,4.4v3.8C171.8,79.8,172.4,80.8,173.6,80.8
			L173.6,80.8z"/>
		<path class="st0" d="M188.2,80.8c0.2,0,0.3,0.1,0.3,0.3v0.7c0,0.2-0.1,0.3-0.3,0.3h-5.6c-0.2,0-0.3-0.1-0.3-0.3v-0.7l0,0
			c0-0.2,0.1-0.3,0.3-0.3h0.4c0.3,0,0.6-0.1,0.6-0.4c0-0.1,0-0.2-0.2-0.3l-3-3.3l-0.5,0.4v1.4c0,1.8,0.1,2.2,1.2,2.2
			c0.2,0,0.3,0.1,0.3,0.3v0.7c0,0.2-0.1,0.3-0.3,0.3h-6.1c-0.2,0-0.3-0.1-0.3-0.3v-0.7c0-0.2,0.1-0.3,0.3-0.3c1.1,0,1.7-0.9,1.7-2.2
			V70c0-1.2-0.1-2.5-1.4-2.6c-0.2,0-0.3-0.1-0.3-0.3v-0.8c0-0.2,0.1-0.2,0.3-0.3c2.4-0.8,3.7-1.7,4.3-2.1c0,0,0.1-0.1,0.1-0.1h0.1
			c0,0,0,0,0,0v11.4l2.8-2.5c0.1-0.1,0.2-0.2,0.2-0.3c0-0.2-0.1-0.3-0.4-0.3h-0.7c-0.2,0-0.3-0.1-0.3-0.3V71c0-0.2,0.1-0.3,0.3-0.3
			h5.1c0.2,0,0.3,0.1,0.3,0.3v0.7c0,0.2-0.1,0.3-0.3,0.3h-0.3c-0.9,0-1.4,0.4-2.6,1.5l-1.8,1.6l4.9,4.9
			C187.6,80.6,187.8,80.8,188.2,80.8L188.2,80.8z"/>
	</g>
	<g>
		<path class="st0" d="M0.9,92v2.5h2.8V92h0.7v5.7H3.7v-2.6H0.9v2.6H0.2V92H0.9z"/>
		<path class="st0" d="M8.2,92h0.9l1.9,5.7h-0.7l-0.5-1.4H7.5L7,97.7H6.3L8.2,92z M7.7,95.7h1.9l-0.9-2.8L7.7,95.7z"/>
		<path class="st0" d="M12.6,92l1.4,4.7l1.4-4.1h0.5l1.4,4.1l1.6-4.7h0.8l-2,5.7h-0.7L15.6,94l-1.3,3.6h-0.7L11.8,92H12.6z"/>
		<path class="st0" d="M22.1,92v2.6l2.5-2.6h1l-2.5,2.5l2.6,3.1h-0.9l-2.2-2.6l-0.6,0.6v2h-0.7V92H22.1z"/>
		<path class="st0" d="M27.5,92H31v0.6h-2.8v1.9h2.6v0.6h-2.6V97H31v0.6h-3.5V92z"/>
		<path class="st0" d="M32.8,92.2c0.1-0.1,0.2-0.1,0.4-0.1s0.3,0.1,0.4,0.2c0.1,0.1,0.2,0.3,0.2,0.5s-0.1,0.4-0.2,0.6
			c-0.1,0.2-0.3,0.4-0.6,0.5l-0.5-0.3c0.4-0.2,0.6-0.4,0.7-0.7c-0.1,0-0.3-0.1-0.3-0.1c-0.1-0.1-0.1-0.2-0.1-0.3
			C32.7,92.4,32.7,92.3,32.8,92.2z"/>
		<path class="st0" d="M38.9,93.4c-0.1-0.6-0.5-0.8-1.2-0.8c-0.4,0-0.7,0.1-0.9,0.2c-0.2,0.2-0.3,0.4-0.3,0.6c0,0.2,0.1,0.4,0.2,0.5
			c0.1,0.1,0.3,0.2,0.6,0.3l1.2,0.4c0.4,0.1,0.7,0.3,1,0.6c0.2,0.2,0.4,0.6,0.4,1c0,0.4-0.2,0.8-0.6,1.1c-0.4,0.3-0.9,0.4-1.5,0.4
			c-0.6,0-1.1-0.2-1.5-0.5c-0.4-0.3-0.6-0.8-0.6-1.3h0.7c0,0.4,0.1,0.7,0.4,0.9c0.3,0.2,0.6,0.3,1,0.3c0.4,0,0.7-0.1,1-0.3
			c0.2-0.2,0.4-0.4,0.4-0.6c0-0.2-0.1-0.4-0.2-0.6c-0.1-0.1-0.4-0.3-0.7-0.4l-1-0.4c-0.5-0.2-0.8-0.3-1.1-0.6
			c-0.2-0.2-0.4-0.5-0.4-0.9c0-0.4,0.2-0.8,0.5-1c0.3-0.3,0.8-0.4,1.4-0.4c0.6,0,1.1,0.1,1.4,0.4c0.3,0.3,0.5,0.6,0.6,1.1H38.9z"/>
		<path class="st0" d="M44.9,92H47c0.6,0,1.1,0.1,1.4,0.4s0.5,0.6,0.5,1.1c0,0.3-0.1,0.6-0.3,0.8c-0.2,0.2-0.4,0.4-0.8,0.5
			c0.4,0.1,0.6,0.2,0.8,0.5c0.2,0.2,0.3,0.5,0.3,0.8c0,0.7-0.3,1.2-1,1.4c-0.3,0.1-0.6,0.1-0.9,0.1h-2.1V92z M45.6,94.5H47
			c0.3,0,0.6-0.1,0.8-0.3c0.2-0.2,0.3-0.4,0.3-0.7c0-0.3-0.1-0.5-0.3-0.7c-0.2-0.2-0.5-0.3-0.8-0.3h-1.4V94.5z M47,97
			c0.4,0,0.7-0.1,0.9-0.3c0.2-0.2,0.3-0.4,0.3-0.7c0-0.3-0.1-0.5-0.3-0.7c-0.2-0.2-0.5-0.3-0.9-0.3h-1.4V97H47z"/>
		<path class="st0" d="M52.5,92h0.9l1.9,5.7h-0.7L54,96.2h-2.2l-0.5,1.4h-0.7L52.5,92z M52,95.7h1.9l-0.9-2.8L52,95.7z"/>
		<path class="st0" d="M56.9,92l1.5,2.6L60,92h0.8l-2,3.3v2.3H58v-2.3L56,92H56.9z"/>
		<path class="st0" d="M67.7,92c0.9,0,1.5,0.3,2,0.8c0.5,0.5,0.8,1.2,0.8,2.1s-0.3,1.5-0.8,2.1c-0.5,0.5-1.2,0.8-2,0.8H66V92H67.7z
			 M66.7,97h1c0.6,0,1.1-0.2,1.5-0.6c0.4-0.4,0.6-0.9,0.6-1.6s-0.2-1.2-0.6-1.6c-0.4-0.4-0.9-0.6-1.5-0.6h-1V97z"/>
		<path class="st0" d="M72.7,92h0.7v5.7h-0.7V92z"/>
		<path class="st0" d="M79.4,96.7c-0.3,0.7-0.7,1.1-1.5,1.1c-0.7,0-1.3-0.3-1.8-0.8c-0.5-0.5-0.7-1.2-0.7-2.1c0-0.9,0.3-1.6,0.8-2.1
			c0.5-0.5,1.1-0.8,1.9-0.8c0.4,0,0.8,0.1,1.2,0.3c0.3,0.2,0.6,0.5,0.9,0.9l-0.7,0.2c-0.4-0.5-0.8-0.7-1.4-0.7c-0.5,0-1,0.2-1.3,0.6
			c-0.4,0.4-0.5,1-0.5,1.7s0.2,1.2,0.5,1.6c0.3,0.4,0.7,0.6,1.3,0.6c0.4,0,0.8-0.1,1-0.4c0.3-0.3,0.4-0.7,0.4-1.3v0L78,95.3v-0.5
			h2.1v2.8h-0.6L79.4,96.7z"/>
		<path class="st0" d="M82.4,92h0.7v5.7h-0.7V92z"/>
		<path class="st0" d="M84.8,92h4.4v0.6h-1.8v5h-0.7v-5h-1.8V92z"/>
		<path class="st0" d="M91.8,92h0.9l1.9,5.7h-0.7l-0.5-1.4h-2.2l-0.5,1.4h-0.7L91.8,92z M91.3,95.7h1.9l-0.9-2.8L91.3,95.7z"/>
		<path class="st0" d="M97.1,97h2.5v0.6h-3.2V92h0.7V97z"/>
		<path class="st0" d="M105.4,92h0.9l1.9,5.7h-0.7l-0.5-1.4h-2.2l-0.5,1.4h-0.7L105.4,92z M104.9,95.7h1.9l-0.9-2.8L104.9,95.7z"/>
		<path class="st0" d="M114,93.6c0,0.5-0.1,0.8-0.4,1.1c-0.2,0.3-0.6,0.5-1.1,0.6l1.6,2.3h-0.9l-1.5-2.3h-1v2.3H110V92h2
			c0.6,0,1.1,0.2,1.5,0.5C113.8,92.8,114,93.2,114,93.6z M112,94.9c0.4,0,0.7-0.1,1-0.3c0.2-0.2,0.3-0.5,0.3-0.8
			c0-0.3-0.1-0.6-0.3-0.8c-0.2-0.2-0.5-0.3-0.9-0.3h-1.3v2.2H112z"/>
		<path class="st0" d="M118.2,91.9c0.6,0,1.1,0.2,1.5,0.5c0.4,0.3,0.6,0.7,0.8,1.2l-0.8,0.2c-0.1-0.4-0.3-0.6-0.6-0.8
			c-0.3-0.2-0.6-0.3-0.9-0.3c-0.5,0-0.9,0.2-1.2,0.6c-0.3,0.4-0.5,0.9-0.5,1.6c0,0.7,0.1,1.3,0.4,1.7c0.3,0.4,0.7,0.6,1.2,0.6
			c0.4,0,0.8-0.1,1.1-0.4c0.3-0.2,0.4-0.5,0.4-0.9h0.8c0,0.6-0.2,1.1-0.6,1.4c-0.4,0.3-1,0.5-1.7,0.5c-0.7,0-1.3-0.3-1.7-0.8
			c-0.4-0.5-0.7-1.3-0.7-2.2c0-0.9,0.2-1.6,0.7-2.1C116.9,92.2,117.5,91.9,118.2,91.9z"/>
		<path class="st0" d="M123.2,92v2.5h2.8V92h0.7v5.7H126v-2.6h-2.8v2.6h-0.7V92H123.2z"/>
		<path class="st0" d="M129.2,92h0.7v5.7h-0.7V92z"/>
		<path class="st0" d="M132.4,92l1.6,4.8l1.6-4.8h0.7l-2,5.7h-0.7l-2-5.7H132.4z"/>
		<path class="st0" d="M138.2,92h3.5v0.6h-2.8v1.9h2.6v0.6h-2.6V97h2.8v0.6h-3.5V92z"/>
		<path class="st0" d="M147,93.4c-0.1-0.6-0.5-0.8-1.2-0.8c-0.4,0-0.7,0.1-0.9,0.2c-0.2,0.2-0.3,0.4-0.3,0.6c0,0.2,0.1,0.4,0.2,0.5
			c0.1,0.1,0.3,0.2,0.6,0.3l1.2,0.4c0.4,0.1,0.7,0.3,1,0.6c0.2,0.2,0.4,0.6,0.4,1c0,0.4-0.2,0.8-0.6,1.1c-0.4,0.3-0.9,0.4-1.5,0.4
			c-0.6,0-1.1-0.2-1.5-0.5c-0.4-0.3-0.6-0.8-0.6-1.3h0.7c0,0.4,0.1,0.7,0.4,0.9c0.3,0.2,0.6,0.3,1,0.3c0.4,0,0.7-0.1,1-0.3
			c0.2-0.2,0.4-0.4,0.4-0.6c0-0.2-0.1-0.4-0.2-0.6c-0.1-0.1-0.4-0.3-0.7-0.4l-1-0.4c-0.5-0.2-0.8-0.3-1.1-0.6
			c-0.2-0.2-0.4-0.5-0.4-0.9c0-0.4,0.2-0.8,0.5-1c0.3-0.3,0.8-0.4,1.4-0.4c0.6,0,1.1,0.1,1.4,0.4c0.3,0.3,0.5,0.6,0.6,1.1H147z"/>
		<path class="st0" d="M152.1,92h4.4v0.6h-1.8v5H154v-5h-1.8V92z"/>
		<path class="st0" d="M162.1,93.6c0,0.5-0.1,0.8-0.4,1.1c-0.2,0.3-0.6,0.5-1.1,0.6l1.6,2.3h-0.9l-1.5-2.3h-1v2.3h-0.7V92h2
			c0.6,0,1.1,0.2,1.5,0.5C162,92.8,162.1,93.2,162.1,93.6z M160.1,94.9c0.4,0,0.7-0.1,1-0.3c0.2-0.2,0.3-0.5,0.3-0.8
			c0-0.3-0.1-0.6-0.3-0.8c-0.2-0.2-0.5-0.3-0.9-0.3h-1.3v2.2H160.1z"/>
		<path class="st0" d="M165,92v3.6c0,0.5,0.1,0.9,0.4,1.1c0.3,0.2,0.6,0.4,1,0.4s0.8-0.1,1-0.4c0.3-0.2,0.4-0.6,0.4-1.1V92h0.7v3.6
			c0,0.7-0.2,1.2-0.6,1.6s-0.9,0.5-1.6,0.5c-0.7,0-1.2-0.2-1.6-0.5s-0.6-0.9-0.6-1.6V92H165z"/>
		<path class="st0" d="M174,93.4c-0.1-0.6-0.5-0.8-1.2-0.8c-0.4,0-0.7,0.1-0.9,0.2c-0.2,0.2-0.3,0.4-0.3,0.6c0,0.2,0.1,0.4,0.2,0.5
			c0.1,0.1,0.3,0.2,0.6,0.3l1.2,0.4c0.4,0.1,0.7,0.3,1,0.6c0.2,0.2,0.4,0.6,0.4,1c0,0.4-0.2,0.8-0.6,1.1c-0.4,0.3-0.9,0.4-1.5,0.4
			c-0.6,0-1.1-0.2-1.5-0.5c-0.4-0.3-0.6-0.8-0.6-1.3h0.7c0,0.4,0.1,0.7,0.4,0.9c0.3,0.2,0.6,0.3,1,0.3c0.4,0,0.7-0.1,1-0.3
			c0.2-0.2,0.4-0.4,0.4-0.6c0-0.2-0.1-0.4-0.2-0.6c-0.1-0.1-0.4-0.3-0.7-0.4l-1-0.4c-0.5-0.2-0.8-0.3-1.1-0.6
			c-0.2-0.2-0.4-0.5-0.4-0.9c0-0.4,0.2-0.8,0.5-1c0.3-0.3,0.8-0.4,1.4-0.4c0.6,0,1.1,0.1,1.4,0.4c0.3,0.3,0.5,0.6,0.6,1.1H174z"/>
		<path class="st0" d="M176.3,92h4.4v0.6h-1.8v5h-0.7v-5h-1.8V92z"/>
	</g>
	<g>
		<polygon class="st1" points="119.7,6.2 123.9,17.3 121.7,17.3 121.7,17.9 124.9,17.9 120.1,5.6 109.4,5.6 109.4,6.3 		"/>

			<rect x="86.9" y="5.7" transform="matrix(1 -6.739689e-03 6.739689e-03 1 -3.853286e-02 0.6463)" class="st1" width="17.9" height="0.6"/>
		<path class="st1" d="M123.8,29.1h-17.2h-0.4h-1l-1.2,2.8v12.1h-0.8V31.9l-1.3-2.8H93v14.9h-0.8V29.1h-2.4h-3.4h-2.4l-0.4,1l0,0
			l-0.7,1.8v0v12.1h-0.5h-0.3V31.8l-1.6-2.7H64.7v14.9h-1.5v1.2h62v-1.2h-1.4V29.1z M114.3,33h2.1v3.2h-2.1V33z M114.3,36.8h2.1V40
			h-2.1V36.8z M111.5,33h2.1v3.2h-2.1V33z M111.5,36.8h2.1V40h-2.1V36.8z"/>
		<polygon class="st1" points="122.1,23.1 121.7,23.6 127.2,27.5 61.7,27.5 66.8,23.6 66.4,23.1 59.9,28.1 129.2,28.1 		"/>
		<path class="st1" d="M67.5,22.5h25.7h27.1v-5.1h-8.5v-0.8v-5.8h0l-4.3-5.9L107.5,4c0.2-0.1,0.3-0.2,0.3-0.4c0-0.2-0.2-0.3-0.4-0.4
			l-0.3-1.8l-0.3,1.8c-0.3,0.1-0.4,0.2-0.4,0.4c0,0.2,0.1,0.3,0.3,0.4l-0.1,0.8l-4.1,5.9v5.8v0.8h-6.4l-0.3-0.1l-2.5-2.8L80.3,0
			L67.5,14v0l-3.2,3.5l3.2,0V22.5z M109.7,19.5h-2.1v-3.2h2.1V19.5z M107.6,12.5h2.1v3.2h-2.1V12.5z M104.9,12.5h2.1v3.2h-2.1V12.5z
			 M104.9,16.3h2.1v3.2h-2.1V16.3z M80.8,11.6h2.4v3.8h-2.4V11.6z M80.8,16.2h2.4V20h-2.4V16.2z M77.5,11.6h2.4v3.8h-2.4V11.6z
			 M77.5,16.2h2.4V20h-2.4V16.2z"/>
	</g>
</g>
</svg>
