<svg width="153" height="242" viewBox="0 0 153 242" fill="none" xmlns="http://www.w3.org/2000/svg">
<path fill-rule="evenodd" clip-rule="evenodd" d="M70.6265 2.625C70.6265 1.17529 69.4512 0 68.0015 0C66.5515 0 65.3762 1.17529 65.3762 2.625V15.262C64.6963 14.4219 63.845 13.8374 63.1233 13.4431C62.2871 12.9866 61.3557 12.6406 60.4514 12.446C59.5522 12.2527 58.604 12.1929 57.7622 12.3828C56.9395 12.5686 56.0515 13.0337 55.5503 14.1082C55.3096 14.6245 55.3022 15.3313 55.5308 16.0259C55.7593 16.7205 56.1982 17.3262 56.7217 17.6692L65.3762 23.3398V37.3997L63.3315 36.0601C63.2148 35.0222 63.0222 33.7966 62.7078 32.5369C62.2102 30.542 61.3052 28.0505 59.6106 26.2327C58.5222 25.0652 57.3745 24.6816 56.3984 24.6899C55.4546 24.698 54.5898 25.0645 53.8628 25.5195C52.405 26.4316 51.1345 27.9351 50.3975 29.0332C50.073 29.5164 50.0054 30.2554 50.2161 31.0085C50.427 31.7617 50.8894 32.4321 51.4524 32.801L65.3762 41.9246V56.6128L61.3865 53.9985C61.1455 52.7988 60.7678 51.3298 60.1887 49.7925C59.3264 47.5032 57.9636 44.9253 55.8542 42.939C53.439 40.6648 50.9075 40.7139 49.0432 41.2864C47.1296 41.874 45.4846 43.1321 44.5291 44.1243C44.1152 44.554 43.9761 45.3152 44.1628 46.1265C44.3496 46.9375 44.8347 47.6777 45.4387 48.0735L65.3762 61.1377V80.0229L59.6733 76.2861C58.8298 73.1436 56.8306 67.9292 52.5503 64.1672C49.8254 61.7722 46.9688 61.387 44.6938 61.688C42.4014 61.9912 40.4382 63.0195 39.2942 63.9011C38.8093 64.2749 38.6079 65.0449 38.7715 65.8994C38.9351 66.7537 39.4365 67.5508 40.0728 67.9678L65.3762 84.5476V99.2266L58.0181 95.2764C57.0159 92.1426 54.6143 86.9326 49.4717 83.2292C46.3284 80.9656 42.9871 80.5698 40.2375 80.8679C37.4797 81.1667 35.1011 82.1838 33.7058 83.0649C33.1301 83.4285 32.8486 84.1995 32.9822 85.0481C33.116 85.8967 33.6406 86.6726 34.3323 87.0439L65.3762 103.71V118.452L55.1787 113.873C54.01 110.353 51.0479 104.326 44.3809 100.225C40.4658 97.8176 36.2258 97.4866 32.6582 97.9404C29.0845 98.395 25.9785 99.6609 24.1562 100.727C23.5193 101.1 23.1792 101.87 23.2844 102.7C23.3896 103.53 23.9211 104.269 24.6465 104.595L65.2405 122.823L65.2756 122.838L65.3079 122.852C65.3306 122.861 65.3533 122.87 65.3762 122.878V143.927L52.9614 138.137C51.5815 134.154 48.0562 127.137 40.2051 122.226C35.7073 119.413 30.8599 118.883 26.7524 119.269C22.6411 119.656 19.082 120.978 17.0049 122.117C16.3604 122.47 16.0115 123.242 16.114 124.088C16.2163 124.934 16.7507 125.696 17.4795 126.036L65.2312 148.303L65.27 148.321L65.2949 148.331L65.3352 148.348L65.3762 148.364V167.674L51.2747 162.213C49.749 158.511 45.8352 152.002 37.1143 147.472C32.1973 144.918 26.8706 144.423 22.3047 144.78C17.7395 145.137 13.7739 146.357 11.4502 147.415C10.7126 147.751 10.2622 148.521 10.3105 149.363C10.3589 150.205 10.8965 150.952 11.6707 151.252L65.0884 171.936C65.1289 171.952 65.1694 171.966 65.2102 171.979L65.2402 171.988L65.2878 172.002C65.3171 172.01 65.3467 172.018 65.3762 172.024V195.286L48.1714 189.095C46.425 185.075 41.835 177.842 31.4446 172.826C25.6946 170.051 19.4451 169.504 14.0537 169.896C8.66504 170.287 3.98193 171.626 1.24585 172.785C0.47168 173.112 -0.0224609 173.881 0.000732422 174.721C0.0236816 175.561 0.559326 176.302 1.35034 176.586L64.97 199.48C65.1042 199.528 65.2402 199.562 65.3762 199.581V241.321H70.6265V199.601C70.8428 199.596 71.062 199.557 71.2769 199.48L134.896 176.586C135.688 176.302 136.223 175.561 136.246 174.721C136.269 173.881 135.775 173.112 135.001 172.785C132.265 171.626 127.582 170.287 122.193 169.896C116.802 169.504 110.552 170.051 104.802 172.826C94.4119 177.842 89.8218 185.075 88.0754 189.095L70.6265 195.374V172.063C70.8037 172.046 70.9822 172.004 71.1584 171.936L124.576 151.252C125.35 150.952 125.888 150.205 125.936 149.363C125.985 148.521 125.534 147.751 124.797 147.415C122.473 146.357 118.507 145.137 113.942 144.78C109.376 144.423 104.05 144.918 99.1326 147.472C90.4116 152.002 86.4978 158.511 84.9722 162.213L70.6265 167.768V148.438C70.7559 148.408 70.8862 148.363 71.0156 148.303L118.767 126.036C119.496 125.696 120.031 124.934 120.133 124.088C120.235 123.242 119.886 122.47 119.242 122.117C117.165 120.978 113.606 119.656 109.494 119.269C105.387 118.883 100.54 119.413 96.0417 122.226C88.1907 127.137 84.6653 134.154 83.2854 138.137L70.6265 144.041V122.95C70.6729 122.939 70.7192 122.927 70.7656 122.913C70.8459 122.889 70.9263 122.858 71.0063 122.823L111.222 104.765C111.946 104.44 112.477 103.703 112.583 102.874C112.69 102.046 112.354 101.277 111.72 100.901C109.91 99.8291 106.825 98.5522 103.277 98.0847C99.7354 97.6179 95.5227 97.9321 91.6357 100.329C85.0291 104.403 82.103 110.413 80.95 113.926L70.6265 118.561V103.828C70.6458 103.82 70.665 103.812 70.6843 103.803C70.7078 103.793 70.7312 103.782 70.7546 103.771C70.7783 103.759 70.8022 103.747 70.8259 103.734L101.915 87.0439C102.606 86.6726 103.131 85.8967 103.265 85.0481C103.398 84.1995 103.117 83.4285 102.541 83.0649C101.146 82.1838 98.7671 81.1667 96.0093 80.8679C93.2598 80.5698 89.9185 80.9656 86.7751 83.2292C81.6326 86.9326 79.231 92.1426 78.2288 95.2764L70.6265 99.3577V84.7056C70.6516 84.6904 70.6768 84.6746 70.7019 84.6582L96.1741 67.9678C96.8103 67.5508 97.3118 66.7537 97.4753 65.8994C97.6389 65.0449 97.4375 64.2749 96.9526 63.9011C95.8086 63.0195 93.8455 61.9912 91.553 61.688C89.2781 61.387 86.4214 61.7722 83.6965 64.1672C79.4163 67.9292 77.417 73.1436 76.5732 76.2861L70.6265 80.1829V61.2952C70.6516 61.2803 70.6765 61.2644 70.7017 61.248L90.8079 48.0735C91.4119 47.6777 91.897 46.9375 92.0837 46.1265C92.2705 45.3152 92.1313 44.554 91.7175 44.1243C90.762 43.1321 89.1169 41.874 87.2034 41.2864C85.3391 40.7139 82.8076 40.6648 80.3923 42.939C78.283 44.9253 76.9202 47.5032 76.0579 49.7925C75.4788 51.3298 75.1011 52.7988 74.8601 53.9985L70.6265 56.7727V42.0825C70.6516 42.0674 70.6768 42.0515 70.7019 42.0352L84.7944 32.801C85.3574 32.4321 85.8198 31.7617 86.0308 31.0085C86.2415 30.2554 86.1738 29.5164 85.8494 29.0332C85.1123 27.9351 83.8418 26.4316 82.384 25.5195C81.657 25.0645 80.7922 24.698 79.8484 24.6899C78.8723 24.6816 77.7246 25.0652 76.6362 26.2327C74.9417 28.0505 74.0366 30.542 73.5391 32.5369C73.2246 33.7966 73.032 35.0222 72.9153 36.0601L70.6265 37.5598V23.4998L79.4412 18.7583C80.001 18.457 80.489 17.8486 80.7522 17.124C81.0154 16.3997 81.0212 15.6477 80.7678 15.1047C80.3091 14.1213 79.5432 13.5813 78.7864 13.2952C78.0176 13.0044 77.147 12.9312 76.3027 13.0061C75.4583 13.0813 74.5728 13.3103 73.7554 13.6912C72.9858 14.05 72.0535 14.6475 71.3196 15.6399C71.1021 15.9341 70.9172 16.1704 70.7222 16.4197L70.6265 16.5422V2.625Z" transform="translate(8.53809 0.443359)" fill="#2EA33A"/>
</svg>
