<svg id="image" xmlns="http://www.w3.org/2000/svg" viewBox="0 0 395 512"><defs><style>.cls-1{fill:#f05a22;}.cls-2{fill:#fbae17;}.cls-3{fill:#172b75;}</style></defs><title>logo-unison-vertical</title><path class="cls-1" d="M291.84,354.91s85.3-93.45,12.79-212.19c43.25,36.47,59.46,72.51,55,111.24-5.84,50.54-35.19,79.41-67.6,101"/><path class="cls-2" d="M365.92,276.09s21.33-124.8-104.11-185.32c56.17,7.34,89.27,28.66,106.42,63.85,22.39,45.64,13.35,85.82-2.31,121.47"/><path class="cls-2" d="M385.67,169.76S336.15,53.28,198,70.13c51.18-24.19,90.64-24,124-3.8,43.46,26.27,57.54,65,63.68,103.43"/><path class="cls-2" d="M344.77,69.61S240.1-1.61,133,87.31c29.85-48,63.29-69.18,102.36-70.24,50.8-1.41,83.51,23.5,109.45,52.54"/><path class="cls-2" d="M256.26,7.47S129.67,4.27,87.58,136.88c-.77-56.6,15.86-92.43,48.06-114.4,42-28.66,83.05-25.37,120.62-15"/><path class="cls-2" d="M148.14,3.12s-108.25,65.56-71.91,200C45,155.94,39.63,116.79,54.9,80.92,74.65,34.13,111,14.64,148.14,3.12"/><path class="cls-2" d="M54.82,57.84S-.63,171.55,102.46,265c-51.74-22.82-77.41-52.84-84-91.23C9.78,123.7,29.78,87.66,54.82,57.84"/><path class="cls-2" d="M5.94,154.32S20.65,280.06,158.16,302.83c-55.91,8.83-93.83-2.55-120.06-31.26C3.59,234,1,192.92,5.94,154.32"/><path class="cls-2" d="M17,261.93s80.35,97.85,208.22,42.65C182.94,342.2,145,353.12,107.28,343c-49.13-12.71-73.57-45.89-90.29-81"/><path class="cls-1" d="M84.46,346.47s120.62,38.9,198.25-76.65c-15.23,54.34-41.29,84.2-78.35,96.23-48.37,15.69-86.84.76-119.9-19.58"/><path class="cls-1" d="M186.91,381.14s122.37-32.45,125.36-171.67c16.5,54.08,10.79,93.15-13.91,123.22-32.2,39.37-72.51,47.77-111.45,48.37"/><path class="cls-3" d="M43.81,510l1.24-6.23a42.11,42.11,0,0,1-7.72,4.27A39.11,39.11,0,0,1,22,511.19c-8.53,0-15.83-2.69-19.11-7.21a15,15,0,0,1-2-12.79l6.22-31.27H29.74L24.83,484.7c-1.53,7.81,1.62,11.95,9.09,11.95,8.19,0,12.79-4.27,14.54-13.65L53,459.92h22.6l-9.94,50.16Z"/><path class="cls-3" d="M104.68,459.88l-1.24,6.23a44.46,44.46,0,0,1,7.42-4.27,36.7,36.7,0,0,1,15.06-3.2,24.23,24.23,0,0,1,19,7.34,15,15,0,0,1,1.92,12.79L140.63,510H118.11L123,485.17c1.45-7.46-1.75-11.73-9.21-11.73-8.15,0-12.8,4.27-14.55,13.65L94.7,510H72.09L82,459.88Z"/><polygon class="cls-3" points="180.47 454.89 157.99 454.89 160.3 443.25 182.77 443.25 180.47 454.89"/><polygon class="cls-3" points="169.55 510.04 147.07 510.04 157.01 459.88 179.49 459.88 169.55 510.04"/><path class="cls-3" d="M222.61,475.83c-.6-4.26-3.2-5.59-9.72-5.59-5.33,0-8.87,1.5-9.43,4.27s1.92,3.33,7.81,4l13.56,1.7a32,32,0,0,1,13.65,3.8,8.87,8.87,0,0,1,3.28,9.13C239.5,504.58,225,512,205.29,512c-15.22,0-25.93-3.2-29-8.53a11.49,11.49,0,0,1-1-8.27l23.08-1.33c0,4,3.41,5.93,10.07,5.93,5.71,0,9.76-1.7,10.32-4.52.38-1.92-1.24-2.9-6-3.71l-10.92-1.71c-17.06-2.6-22.05-6.31-20.34-14.92,2.22-11.05,14.29-17.07,35-17.07,18.59,0,28.15,5.42,28.87,16.34Z"/><path class="cls-3" d="M297.08,485a16.54,16.54,0,0,1-17.36,13.22c-9,0-13.6-5.12-12-13.22a16.42,16.42,0,0,1,17.06-13.14c9,0,13.73,5.12,12.11,13.14m23.37,0c3.33-16.76-9.08-27-32.8-27s-39.75,10.32-43.16,27,9.13,26.87,32.72,26.87,40.13-10.11,43.41-26.79"/><path class="cls-3" d="M351.93,459.88l-1.23,6.23a43.68,43.68,0,0,1,7.42-4.27,36.62,36.62,0,0,1,15.05-3.2,24.19,24.19,0,0,1,19,7.34,14.91,14.91,0,0,1,1.92,12.79L387.89,510H365.41l4.9-24.78c1.41-7.72-1.74-11.81-9.21-11.81-8.19,0-12.79,4.26-14.54,13.65L342,510h-22.6l9.94-50.16Z"/></svg>